<?xml version="1.0" encoding="utf-8"?>
<!-- Generator: Adobe Illustrator 27.5.0, SVG Export Plug-In . SVG Version: 6.00 Build 0)  -->
<svg version="1.1" id="Capa_1" xmlns="http://www.w3.org/2000/svg" xmlns:xlink="http://www.w3.org/1999/xlink" x="0px" y="0px"
	 viewBox="0 0 2122 2122" style="enable-background:new 0 0 2122 2122;" xml:space="preserve">
<g>
	<rect x="0" style="fill:#F9CDCF;" width="2121.319" height="2121.322"/>
	<g>
		<rect x="0" y="1736.538" style="opacity:0.68;fill:#FFFFFF;" width="2121.319" height="384.784"/>
		<rect x="0" y="1633.147" style="fill:#D6D2D1;" width="2121.319" height="103.391"/>
	</g>
</g>
<g>
	<g>
		<g>
			<path style="fill:#24ABE1;" d="M966.49,777.728H744.532v0.01c-19.186,0-34.743-15.552-34.743-34.738
				c0-19.186,15.556-34.738,34.743-34.738l0,0H966.49c2.08,0,3.761-1.681,3.761-3.766c0-2.08-1.681-3.761-3.761-3.761H744.532
				c-23.347,0-42.265,18.918-42.265,42.266c0,23.337,18.918,42.265,42.265,42.265l0,0H966.49c2.08,0,3.761-1.681,3.761-3.766
				C970.251,779.414,968.571,777.728,966.49,777.728z"/>
			<g>
				<path style="fill:#DDD7D5;" d="M964.605,708.252H753.638c-19.186,0-34.743,15.552-34.743,34.748
					c0,19.186,15.556,34.738,34.743,34.738h210.967V708.252z"/>
				<path style="fill:#C6BFB8;" d="M964.605,769.114H748.649c-20.565,0-29.754-15.956-29.754-26.114
					c0-19.196,15.556-34.748,34.743-34.748h-9.067c-19.186,0-34.743,15.552-34.743,34.748c0,19.186,15.557,34.738,34.743,34.738
					h220.034V769.114z"/>
			</g>
			<g>
				<g>
					<g>
						<path style="fill:#A89F9E;" d="M765.049,721.806c27.805-0.516,55.612-0.385,83.418-0.599
							c27.805,0.212,55.612,0.08,83.418,0.599c-27.805,0.519-55.613,0.388-83.418,0.599
							C820.661,722.191,792.853,722.323,765.049,721.806z"/>
					</g>
				</g>
				<g>
					<g>
						<path style="fill:#A89F9E;" d="M728.761,743c21.206-0.424,42.414-0.314,63.62-0.492c21.206,0.176,42.414,0.068,63.62,0.492
							c-21.206,0.424-42.414,0.316-63.62,0.492C771.175,743.314,749.967,743.424,728.761,743z"/>
					</g>
				</g>
				<g>
					<g>
						<path style="fill:#A89F9E;" d="M798.232,761.67c27.729-0.424,55.456-0.314,83.186-0.492
							c27.73,0.176,55.457,0.068,83.187,0.492c-27.729,0.424-55.457,0.316-83.187,0.492
							C853.689,761.984,825.962,762.094,798.232,761.67z"/>
					</g>
				</g>
				<g>
					<g>
						<path style="fill:#A89F9E;" d="M787.065,750.669c29.591-0.424,59.179-0.314,88.77-0.493
							c29.591,0.176,59.179,0.068,88.77,0.493c-29.591,0.423-59.179,0.317-88.77,0.492
							C846.245,750.983,816.656,751.092,787.065,750.669z"/>
					</g>
				</g>
				<g>
					<g>
						<path style="fill:#A89F9E;" d="M787.065,731.156c29.591-0.638,59.179-0.477,88.77-0.74c29.591,0.261,59.179,0.1,88.77,0.74
							c-29.591,0.641-59.179,0.48-88.77,0.741C846.245,731.633,816.656,731.794,787.065,731.156z"/>
					</g>
				</g>
				<g>
					<g>
						<path style="fill:#A89F9E;" d="M894.198,715.015c23.469-0.66,46.938-0.668,70.407,0
							C941.136,715.682,917.667,715.675,894.198,715.015z"/>
					</g>
				</g>
				<g>
					<g>
						<path style="fill:#A89F9E;" d="M761.238,771.511c31.817-0.424,63.637-0.314,95.454-0.492
							c31.817,0.175,63.637,0.068,95.454,0.492c-31.817,0.424-63.637,0.317-95.454,0.492
							C824.876,771.826,793.056,771.935,761.238,771.511z"/>
					</g>
				</g>
				<g>
					<g>
						<path style="fill:#A89F9E;" d="M755.173,735.584c11.447-0.614,22.896-0.655,34.343-0.743
							c11.447,0.085,22.897,0.124,34.343,0.743c-11.447,0.619-22.896,0.658-34.343,0.743
							C778.069,736.24,766.62,736.199,755.173,735.584z"/>
					</g>
				</g>
			</g>
		</g>
		<g>
			<path style="fill:#DDD7D5;" d="M980.02,798.649H730.003c-14.382,0-26.046,11.747-26.046,26.231
				c0,14.485,11.664,26.226,26.046,26.226H980.02V798.649z"/>
			<path style="fill:#19A338;" d="M982.047,851.107H723.114c-14.334-0.151-25.954-11.854-25.954-26.226
				c0-14.373,11.62-26.081,25.954-26.231h258.933c3.693,0,6.689-2.996,6.689-6.685c0-3.693-2.996-6.699-6.689-6.699H719.918
				c-20.224,1.764-36.146,18.938-36.146,39.615c0,20.677,15.922,37.846,36.146,39.615h262.129c3.693,0,6.689-3.001,6.689-6.689
				C988.736,854.108,985.74,851.107,982.047,851.107z"/>
			<g>
				<g>
					<g>
						<path style="fill:#A89F9E;" d="M761.404,808.383c31.773-0.443,63.547-0.329,95.32-0.514
							c31.774,0.183,63.547,0.071,95.32,0.514c-31.774,0.444-63.547,0.331-95.32,0.514
							C824.951,808.713,793.177,808.827,761.404,808.383z"/>
					</g>
				</g>
				<g>
					<g>
						<path style="fill:#A89F9E;" d="M730.369,824.881c22.456-0.361,44.913-0.268,67.369-0.419
							c22.456,0.146,44.913,0.056,67.369,0.419c-22.456,0.363-44.913,0.273-67.369,0.419
							C775.282,825.148,752.824,825.241,730.369,824.881z"/>
					</g>
				</g>
				<g>
					<g>
						<path style="fill:#A89F9E;" d="M789.774,836.719c31.708-0.36,63.415-0.268,95.123-0.419
							c31.708,0.146,63.415,0.056,95.123,0.419c-31.707,0.363-63.415,0.273-95.123,0.419
							C853.189,836.987,821.482,837.08,789.774,836.719z"/>
					</g>
				</g>
				<g>
					<g>
						<path style="fill:#A89F9E;" d="M780.235,829.704c33.298-0.361,66.594-0.268,99.893-0.419
							c33.298,0.146,66.594,0.056,99.892,0.419c-33.298,0.363-66.594,0.273-99.892,0.419
							C846.829,829.972,813.533,830.064,780.235,829.704z"/>
					</g>
				</g>
				<g>
					<g>
						<path style="fill:#A89F9E;" d="M780.235,816.374c33.298-0.546,66.594-0.407,99.893-0.634
							c33.298,0.225,66.594,0.085,99.892,0.634c-33.298,0.548-66.594,0.409-99.892,0.634
							C846.829,816.78,813.533,816.92,780.235,816.374z"/>
					</g>
				</g>
				<g>
					<g>
						<path style="fill:#A89F9E;" d="M919.82,802.576c10.034-0.361,20.066-0.268,30.1-0.419c10.034,0.146,20.066,0.056,30.1,0.419
							c-10.034,0.363-20.066,0.273-30.1,0.419C939.886,802.844,929.854,802.936,919.82,802.576z"/>
					</g>
				</g>
				<g>
					<g>
						<path style="fill:#A89F9E;" d="M758.135,840.827c35.206-0.361,70.409-0.268,105.615-0.419
							c35.206,0.146,70.409,0.056,105.615,0.419c-35.206,0.363-70.409,0.273-105.615,0.419
							C828.544,841.095,793.341,841.187,758.135,840.827z"/>
					</g>
				</g>
				<g>
					<g>
						<path style="fill:#A89F9E;" d="M752.951,820.164c14.112-0.546,28.222-0.407,42.334-0.634
							c14.112,0.224,28.221,0.085,42.334,0.634c-14.112,0.548-28.222,0.409-42.334,0.633
							C781.173,820.571,767.063,820.71,752.951,820.164z"/>
					</g>
				</g>
			</g>
			<path style="fill:#C6BFB8;" d="M728.878,843.843c-19.104,0-24.921-13.53-24.921-18.962c0-14.485,11.664-26.231,26.046-26.231
				h-6.797c-14.387,0-26.046,11.747-26.046,26.231c0,14.485,11.659,26.226,26.046,26.226H980.02v-7.264H728.878z"/>
		</g>
		<g>
			<path style="fill:#DDD7D5;" d="M966.217,872.9H745.774c-15.771,0-28.556,12.872-28.556,28.75
				c0,15.878,12.784,28.755,28.556,28.755h220.443V872.9z"/>
			<path style="fill:#EA6D07;" d="M966.978,930.342H738.179h-0.005h-0.014c-15.659-0.166-28.395-13.037-28.395-28.691
				c0-15.659,12.735-28.526,28.395-28.692h0.014h0.005l228.799,0.009c2.338,0,4.234-1.905,4.234-4.239
				c0-2.329-1.895-4.234-4.234-4.234H735.094c-9.159,0.823-17.656,5.057-23.951,11.922c-6.344,6.918-9.847,15.883-9.847,25.232
				c0,9.349,3.503,18.314,9.847,25.237c6.295,6.864,14.792,11.094,23.951,11.912h231.883c2.338,0,4.234-1.895,4.234-4.229
				C971.211,932.242,969.316,930.342,966.978,930.342z"/>
			<g>
				<g>
					<g>
						<path style="fill:#A89F9E;" d="M794.164,883.56c18.996-0.485,37.992-0.361,56.989-0.563
							c18.997,0.198,37.993,0.075,56.989,0.563c-18.996,0.487-37.993,0.365-56.989,0.563
							C832.157,883.921,813.16,884.045,794.164,883.56z"/>
					</g>
				</g>
				<g>
					<g>
						<path style="fill:#A89F9E;" d="M746.169,901.65c22.151-0.395,44.304-0.295,66.455-0.46c22.151,0.163,44.305,0.063,66.455,0.46
							c-22.151,0.397-44.305,0.297-66.455,0.461C790.473,901.945,768.32,902.045,746.169,901.65z"/>
					</g>
				</g>
				<g>
					<g>
						<path style="fill:#A89F9E;" d="M825.272,914.634c23.491-0.395,46.982-0.295,70.473-0.461
							c23.491,0.163,46.982,0.063,70.473,0.461c-23.491,0.397-46.982,0.297-70.473,0.461
							C872.254,914.929,848.763,915.029,825.272,914.634z"/>
					</g>
				</g>
				<g>
					<g>
						<path style="fill:#A89F9E;" d="M814.802,906.932c25.235-0.395,50.472-0.295,75.708-0.46
							c25.235,0.163,50.473,0.063,75.708,0.46c-25.235,0.397-50.473,0.297-75.708,0.461
							C865.275,907.226,840.037,907.326,814.802,906.932z"/>
					</g>
				</g>
				<g>
					<g>
						<path style="fill:#A89F9E;" d="M814.802,892.325c25.235-0.599,50.472-0.445,75.708-0.696
							c25.235,0.248,50.473,0.095,75.708,0.696c-25.235,0.602-50.473,0.449-75.708,0.697
							C865.275,892.771,840.037,892.924,814.802,892.325z"/>
					</g>
				</g>
				<g>
					<g>
						<path style="fill:#A89F9E;" d="M872.814,877.197c15.567-0.395,31.136-0.295,46.702-0.461
							c15.566,0.163,31.135,0.063,46.701,0.461c-15.566,0.397-31.135,0.297-46.701,0.46
							C903.95,877.492,888.381,877.592,872.814,877.197z"/>
					</g>
				</g>
				<g>
					<g>
						<path style="fill:#A89F9E;" d="M790.593,919.136c20.229-0.395,40.46-0.295,60.689-0.461
							c20.229,0.163,40.461,0.063,60.69,0.461c-20.229,0.397-40.461,0.297-60.69,0.46
							C831.053,919.431,810.822,919.531,790.593,919.136z"/>
					</g>
				</g>
				<g>
					<g>
						<path style="fill:#A89F9E;" d="M784.902,896.476c10.675-0.575,21.349-0.614,32.025-0.697
							c10.674,0.08,21.349,0.117,32.024,0.697c-10.674,0.58-21.349,0.616-32.024,0.697
							C806.251,897.09,795.577,897.051,784.902,896.476z"/>
					</g>
				</g>
			</g>
			<path style="fill:#C6BFB8;" d="M744.542,922.44c-20.94,0-27.323-14.836-27.323-20.789c0-15.878,12.784-28.75,28.556-28.75h-7.45
				c-15.781,0-28.56,12.872-28.56,28.75c0,15.878,12.779,28.755,28.56,28.755h227.892v-7.966H744.542z"/>
		</g>
		<g>
			<path style="fill:#69B546;" d="M953.774,1008.675c0,0,7.371-14.987,7.371-34.426c0-19.44-7.371-34.426-7.371-34.426H715.441
				c0,0-4.078,8.273-4.078,34.426s4.078,34.426,4.078,34.426H953.774z"/>
			<path style="fill:#8FC043;" d="M764.015,991.053c9.277,0,16.809-7.522,16.809-16.804c0-9.276-7.532-16.808-16.809-16.808
				s-16.799,7.532-16.799,16.808C747.216,983.531,754.739,991.053,764.015,991.053z"/>
			<path style="fill:#8FC043;" d="M722.52,974.249c0-26.154,4.069-34.426,4.069-34.426h16.278c0,0-4.073,8.273-4.073,34.426
				s4.073,34.426,4.073,34.426h-16.278C726.588,1008.675,722.52,1000.403,722.52,974.249z"/>
			<path style="fill:#8FC043;" d="M935.791,974.249c0-26.154-4.064-34.426-4.064-34.426H915.45c0,0,4.069,8.273,4.069,34.426
				s-4.069,34.426-4.069,34.426h16.278C931.728,1008.675,935.791,1000.403,935.791,974.249z"/>
			<path style="fill:#8FC043;" d="M950.665,974.249c0-26.154-4.058-34.426-4.058-34.426h-8.137c0,0,4.063,8.273,4.063,34.426
				s-4.063,34.426-4.063,34.426h8.137C946.607,1008.675,950.665,1000.403,950.665,974.249z"/>
		</g>
		<g>
			<path style="fill:#242F5E;" d="M1009.331,1077.518c0,0,7.381-14.982,7.381-34.426c0-19.44-7.381-34.417-7.381-34.417H659.864
				c0,0-4.068,8.273-4.068,34.417c0,26.153,4.068,34.426,4.068,34.426H1009.331z"/>
			<path style="fill:#37457F;" d="M666.958,1043.092c0-26.144,4.068-34.417,4.068-34.417H687.3c0,0-4.068,8.273-4.068,34.417
				c0,26.153,4.068,34.426,4.068,34.426h-16.273C671.026,1077.518,666.958,1069.245,666.958,1043.092z"/>
			<path style="fill:#37457F;" d="M991.357,1043.092c0-26.144-4.068-34.417-4.068-34.417h-16.273c0,0,4.069,8.273,4.069,34.417
				c0,26.153-4.069,34.426-4.069,34.426h16.273C987.289,1077.518,991.357,1069.245,991.357,1043.092z"/>
			<path style="fill:#37457F;" d="M1006.232,1043.092c0-26.144-4.068-34.417-4.068-34.417h-8.141c0,0,4.078,8.273,4.078,34.417
				c0,26.153-4.078,34.426-4.078,34.426h8.141C1002.164,1077.518,1006.232,1069.245,1006.232,1043.092z"/>
		</g>
		<g>
			<path style="fill:#26AAE1;" d="M993.584,1146.303c0,0,7.376-14.977,7.376-34.422c0-19.444-7.376-34.421-7.376-34.421H675.621
				c0,0-4.068,8.268-4.068,34.421c0,26.154,4.068,34.422,4.068,34.422H993.584z"/>
			<path style="fill:#56BEEA;" d="M682.71,1111.881c0-26.153,4.069-34.421,4.069-34.421h16.268c0,0-4.068,8.268-4.068,34.421
				c0,26.154,4.068,34.422,4.068,34.422h-16.268C686.778,1146.303,682.71,1138.034,682.71,1111.881z"/>
		</g>
	</g>
	<g>
		<g>
			<path style="fill:#77AC53;" d="M267.665,1446.541c0.385-0.848,1.204-1.393,2.188-1.442
				c59.859-3.167,124.901,8.068,188.102,32.497c30.071,11.625,57.325,25.354,81.52,41.042
				c18.066,11.722,58.168,52.609,87.011,92.288l-4.351,3.001c-25.948-35.016-68.004-79.434-85.334-90.733
				c-32.069-20.886-69.384-38.095-111.562-51.4c-53.213-16.804-105.354-23.985-154.977-21.35c-0.959,0.044-1.817-0.37-2.353-1.15
				C267.369,1448.48,267.261,1447.408,267.665,1446.541z"/>
			<path style="fill:#77AC53;" d="M276.586,1447.476c-51.493-43.415-111.42-15.293-170.884-10.065
				C153.473,1456.928,226.516,1472.665,276.586,1447.476L276.586,1447.476z"/>
			<path style="fill:#77AC53;" d="M377.171,1456.285c-19.201-30.441-35.196-55.815-63.946-80.594
				c-28.015-24.175-60.361-44.55-95.327-57.257l0,0l0,0c9.203,11.22,13.125,30.378,21.13,43.064
				c9.73,16.556,23.805,29.306,38.48,41.33c22.743,18.641,46.416,33.135,74.309,42.5L377.171,1456.285z"/>
			<path style="fill:#6A9D2F;" d="M312.299,1448.305c-15.454,54.772-93.827,80.082-138.611,97.335
				c24.517-31.415,69.574-59.478,103.293-79.683L312.299,1448.305z"/>
			<path style="fill:#77AC53;" d="M399.314,1462.18c-5.905,62.597-60.94,119.289-123.741,131.586c0,0,20.375-32.351,28.395-46.626
				c12.219-19.41,27.99-37.159,46.212-50.421L399.314,1462.18z"/>
			<path style="fill:#428130;" d="M418.501,1466.94c1.959-41.306-24.93-96.531-58.411-121.505
				c-0.482,15.547,8.789,34.173,13.647,49.189c7.128,24.234,17.12,43.459,34.529,62.626L418.501,1466.94z"/>
			<path style="fill:#6A9D2F;" d="M445.029,1475.725c-6.918,40.769-35.6,61.768-74.104,76.043c0,0,14.646-27.678,23.05-38.343
				c7.571-10.232,18.514-20.068,30.353-26.1L445.029,1475.725z"/>
			<path style="fill:#6A9D2F;" d="M482.501,1490.224c14.002,18.193,11.742,37.788,3.04,58.86c0,0-5.754-16.404-6.928-23.849
				c-1.311-6.943-1.194-15.113,0.814-22.202L482.501,1490.224z"/>
			<path style="fill:#428130;" d="M487.397,1493.069c22.475-4.653,33.54-20.994,40.677-42.631c0,0-15.054,8.677-20.799,13.554
				c-5.525,4.404-10.758,10.679-13.866,17.369L487.397,1493.069z"/>
			<path style="fill:#6A9D2F;" d="M360.104,1453.381c-5.501,39.64-86.645,92.073-121.885,103.659c0,0,30.538-36.288,64.054-66.46
				C335.787,1460.406,360.104,1453.381,360.104,1453.381z"/>
			<path style="fill:#6A9D2F;" d="M300.859,1447.418c-14.436-30.801-72.069-69.325-111.035-87.454
				c12.526,26.826,61.622,76.814,107.727,87.371L300.859,1447.418z"/>
			<path style="fill:#77AC53;" d="M470.871,1485.8c5.155-16.633,0.57-40.009-7.381-58.943
				c-11.025-26.972-26.407-51.995-45.32-74.387c-1.452,38.831,24.312,103.902,50.656,132.384L470.871,1485.8z"/>
			<path style="fill:#428130;" d="M474.296,1487.067c-9.272,48.356-39.425,86.85-99.624,86.216
				c14.66-12.852,35.308-35.698,56.078-52.005C451.495,1504.972,474.296,1487.067,474.296,1487.067z"/>
			<path style="fill:#6A9D2F;" d="M481.127,1489.591c21.7-17.886,20.969-55.62,14.051-79.981
				c-10.466,17.374-19.079,46.256-15.367,65.803L481.127,1489.591z"/>
		</g>
		<g>
			<path style="fill:#77AC53;" d="M597.872,1473.737c-1.842,31.888-0.434,124.906-7.703,154.051h8.063
				c7.099-29.013,5.574-122.051,7.352-154.051c2.197-39.444,0.331-81.042-5.579-124.502
				c-13.35-98.002-44.862-189.057-91.133-263.337c-0.755-1.218-2.022-1.88-3.386-1.773c-1.384,0.097-2.699,0.984-3.342,2.25
				c-0.624,1.228-0.551,2.621,0.185,3.82c38.358,61.559,65.963,133.267,82.022,213.135
				C596.449,1363.442,600.956,1420.426,597.872,1473.737z"/>
			<path style="fill:#77AC53;" d="M510.579,1096.188C529.755,999.76,451.553,943,402.93,870.688
				C411.67,945.504,443.076,1049.962,510.579,1096.188L510.579,1096.188z"/>
			<path style="fill:#77AC53;" d="M570.257,1230.955c25.374-46.007,46.519-84.35,57.905-138.567
				c11.152-52.852,14.377-108.57,5.958-162.212l0,0l0,0c-7.849,19.664-29.564,38.197-40.141,57.364
				c-14.29,24.117-20.673,51.099-25.686,78.334c-7.781,42.212-9.608,82.699-1.905,124.95L570.257,1230.955z"/>
			<path style="fill:#6A9D2F;" d="M534.715,1142.41c-80.911,18.889-168.521-63.425-222.163-108.506
				c57.442,9.174,125.086,46.977,174.684,75.829L534.715,1142.41z"/>
			<path style="fill:#77AC53;" d="M578.35,1263.418c-84.17,36.585-195.435,6.236-255.449-65.354c0,0,55.717,3.22,79.62,3.396
				c33.432,1.934,67.216,9.574,97.033,23.508L578.35,1263.418z"/>
			<path style="fill:#428130;" d="M585.794,1291.296c54.173-26.626,105.788-99.937,114.105-160.351
				c-20.209,10.358-37.481,35.333-53.247,52.132c-25.949,26.192-43.469,52.531-55.688,88.292L585.794,1291.296z"/>
			<path style="fill:#6A9D2F;" d="M593.278,1331.389c-56.989,19.917-104.054-1.944-149.452-41.077c0,0,45.696-0.799,65.267,2.417
				c18.407,2.446,38.699,9.51,54.753,20.385L593.278,1331.389z"/>
			<path style="fill:#6A9D2F;" d="M601.17,1389.508c-13.369,30.724-40.024,41.651-73.077,45.393c0,0,16.906-18.918,25.593-25.671
				c7.932-6.577,18.47-12.185,28.945-14.626L601.17,1389.508z"/>
			<path style="fill:#428130;" d="M600.98,1397.771c21.808,25.437,50.485,28.053,83.186,21.919c0,0-21.71-13.121-32.005-17.018
				c-9.52-3.961-21.228-6.217-31.966-5.476L600.98,1397.771z"/>
			<path style="fill:#6A9D2F;" d="M561.94,1207.087c-54.533,20.93-178.781-45.798-218.45-82.675c0,0,67.922,13.452,130.119,35.006
				C535.811,1180.963,561.94,1207.087,561.94,1207.087z"/>
			<path style="fill:#6A9D2F;" d="M527.772,1127.165c29.193-40.166,37.783-140.988,33.461-203.585
				c-25.442,34.923-54.699,132.93-35.678,199.308L527.772,1127.165z"/>
			<path style="fill:#77AC53;" d="M598.623,1371.53c24.906-5.155,51.532-27.503,70.129-51.011
				c26.699-33.116,47.829-70.422,63.113-110.387c-50.651,25.525-115.654,104.355-133.481,158.109L598.623,1371.53z"/>
			<path style="fill:#428130;" d="M599.421,1376.787c-68.341,22.271-138.811,10.875-180.453-66.519
				c26.762,9.686,70.519,19.956,106.012,34.992C560.464,1360.285,599.421,1376.787,599.421,1376.787z"/>
			<path style="fill:#6A9D2F;" d="M601.005,1387.306c38.182,15.128,85.885-12.424,112.146-38.446
				c-29.589-1.125-72.589,8.239-94.943,26.763L601.005,1387.306z"/>
		</g>
		<polygon style="fill:#006B9C;" points="668.123,1846.097 698.403,1624.436 447.115,1624.436 476.883,1846.097 		"/>
		<path style="fill:#26AAE1;" d="M706.885,1624.436v-42.626c0-8.652-7.01-15.674-15.674-15.674H454.306
			c-8.663,0-15.674,7.021-15.674,15.674v42.626H706.885z"/>
	</g>
	<g>
		<rect x="642.437" y="1279.048" style="fill:#F59C52;" width="524.974" height="567.049"/>
		<path style="fill:#EA6D07;" d="M1429.978,1150.2h-262.567c-35.586,0-64.429,28.848-64.429,64.429
			c0,35.576,28.843,64.419,64.429,64.419v567.049h326.995v-631.468C1494.406,1179.048,1465.564,1150.2,1429.978,1150.2z"/>
		<path style="fill:#F9B457;" d="M1102.982,1214.629c0-35.581,28.843-64.429,64.429-64.429H642.437
			c-35.576,0-64.419,28.848-64.419,64.429c0,35.576,28.843,64.419,64.419,64.419h524.974
			C1131.825,1279.048,1102.982,1250.205,1102.982,1214.629z"/>
		<g>
			<g>
				<rect x="664.43" y="1313.664" style="fill:#F9B457;" width="475.814" height="155.011"/>
				<rect x="664.43" y="1487.31" style="fill:#F9B457;" width="475.814" height="155.011"/>
				<rect x="664.43" y="1656.474" style="fill:#F9B457;" width="475.814" height="155.006"/>
			</g>
			<path style="fill:#F59C52;" d="M990.408,1358.633c0,7.679-6.236,13.905-13.906,13.905H828.176c-7.684,0-13.9-6.226-13.9-13.905
				l0,0c0-7.683,6.217-13.905,13.9-13.905h148.326C984.171,1344.728,990.408,1350.95,990.408,1358.633L990.408,1358.633z"/>
			<path style="fill:#F59C52;" d="M990.408,1534.765c0,7.679-6.236,13.905-13.906,13.905H828.176c-7.684,0-13.9-6.226-13.9-13.905
				l0,0c0-7.683,6.217-13.905,13.9-13.905h148.326C984.171,1520.86,990.408,1527.081,990.408,1534.765L990.408,1534.765z"/>
			<path style="fill:#F59C52;" d="M990.408,1710.891c0,7.678-6.236,13.905-13.906,13.905H828.176c-7.684,0-13.9-6.227-13.9-13.905
				l0,0c0-7.679,6.217-13.905,13.9-13.905h148.326C984.171,1696.986,990.408,1703.213,990.408,1710.891L990.408,1710.891z"/>
		</g>
	</g>
	<g>
		<g>
			<path style="fill:#F18425;" d="M887.689,973.499h341.69l0,0c15.045,0,27.249-12.2,27.249-27.245
				c0-15.05-12.205-27.255-27.249-27.255l0,0h-341.69c-1.632,0-2.953-1.316-2.953-2.947c0-1.632,1.32-2.958,2.953-2.958h341.69
				c18.309,0,33.159,14.85,33.159,33.16c0,18.309-14.85,33.15-33.159,33.15l0,0h-341.69c-1.632,0-2.953-1.315-2.953-2.953
				C884.736,974.819,886.056,973.499,887.689,973.499z"/>
			<g>
				<path style="fill:#DDD7D5;" d="M889.165,918.995h333.066c15.055,0,27.255,12.205,27.255,27.26c0,15.045-12.2,27.25-27.255,27.25
					H889.165V918.995z"/>
				<path style="fill:#C6BFB8;" d="M889.165,966.746h336.988c16.132,0,23.332-12.531,23.332-20.492
					c0-15.055-12.2-27.26-27.255-27.26h7.113c15.055,0,27.255,12.205,27.255,27.26c0,15.045-12.2,27.25-27.255,27.25H889.165
					V966.746z"/>
			</g>
			<g>
				<g>
					<g>
						<path style="fill:#A89F9E;" d="M1213.286,929.626c-34.551,0.448-69.099,0.336-103.649,0.521
							c-34.551-0.185-69.099-0.071-103.649-0.521c34.551-0.451,69.099-0.336,103.649-0.521
							C1144.188,929.289,1178.736,929.178,1213.286,929.626z"/>
					</g>
				</g>
				<g>
					<g>
						<path style="fill:#A89F9E;" d="M1241.749,946.254c-29.372,0.368-58.745,0.273-88.117,0.427
							c-29.371-0.151-58.745-0.056-88.117-0.427c29.371-0.37,58.745-0.275,88.117-0.426
							C1183.004,945.981,1212.377,945.886,1241.749,946.254z"/>
					</g>
				</g>
				<g>
					<g>
						<polygon style="fill:#A89F9E;" points="1187.26,960.899 1038.212,961.326 889.165,960.899 1038.212,960.473 						"/>
					</g>
				</g>
				<g>
					<g>
						<polygon style="fill:#A89F9E;" points="1196.01,952.266 1042.587,952.693 889.165,952.266 1042.587,951.84 						"/>
					</g>
				</g>
				<g>
					<g>
						<path style="fill:#A89F9E;" d="M1196.01,936.968c-51.14,0.555-102.282,0.414-153.423,0.646
							c-51.14-0.229-102.282-0.088-153.422-0.646c51.14-0.558,102.282-0.417,153.422-0.646
							C1093.727,936.554,1144.87,936.412,1196.01,936.968z"/>
					</g>
				</g>
				<g>
					<g>
						<path style="fill:#A89F9E;" d="M1035.552,924.305c-24.397,0.368-48.797,0.273-73.194,0.426
							c-24.397-0.151-48.797-0.056-73.194-0.426c24.397-0.37,48.796-0.275,73.194-0.427
							C986.756,924.032,1011.155,923.938,1035.552,924.305z"/>
					</g>
				</g>
				<g>
					<g>
						<polygon style="fill:#A89F9E;" points="1216.278,968.617 1057.608,969.044 898.939,968.617 1057.608,968.191 						"/>
					</g>
				</g>
				<g>
					<g>
						<path style="fill:#A89F9E;" d="M1221.038,940.437c-21.717,0.555-43.438,0.414-65.155,0.646
							c-21.717-0.229-43.437-0.088-65.155-0.646c21.718-0.558,43.437-0.417,65.155-0.646
							C1177.6,940.023,1199.321,939.882,1221.038,940.437z"/>
					</g>
				</g>
			</g>
		</g>
		<g>
			<path style="fill:#69B546;" d="M1169.062,752.135c0,0,5.734,11.654,5.734,26.782c0,15.123-5.734,26.777-5.734,26.777H983.62
				c0,0-3.162-6.431-3.162-26.777c0-20.356,3.162-26.782,3.162-26.782H1169.062z"/>
			<path style="fill:#8FC043;" d="M1021.423,765.845c7.226,0,13.077,5.846,13.077,13.072c0,7.221-5.851,13.077-13.077,13.077
				c-7.22,0-13.076-5.856-13.076-13.077C1008.347,771.692,1014.203,765.845,1021.423,765.845z"/>
			<path style="fill:#8FC043;" d="M989.14,778.917c0,20.346,3.162,26.777,3.162,26.777h12.668c0,0-3.171-6.431-3.171-26.777
				c0-20.356,3.171-26.782,3.171-26.782h-12.668C992.302,752.135,989.14,758.561,989.14,778.917z"/>
			<path style="fill:#8FC043;" d="M1155.069,778.917c0,20.346-3.162,26.777-3.162,26.777h-12.662c0,0,3.172-6.431,3.172-26.777
				c0-20.356-3.172-26.782-3.172-26.782h12.662C1151.907,752.135,1155.069,758.561,1155.069,778.917z"/>
			<path style="fill:#8FC043;" d="M1166.646,778.917c0,20.346-3.161,26.777-3.161,26.777h-6.339c0,0,3.172-6.431,3.172-26.777
				c0-20.356-3.172-26.782-3.172-26.782h6.339C1163.484,752.135,1166.646,758.561,1166.646,778.917z"/>
		</g>
		<g>
			<path style="fill:#999A9C;" d="M1185.32,528.404c0,0,6.758,13.729,6.758,31.542c0,17.817-6.758,31.542-6.758,31.542H966.909
				c0,0-3.732-7.576-3.732-31.542c0-23.961,3.732-31.542,3.732-31.542H1185.32z"/>
			<path style="fill:#BBBAB8;" d="M993.272,528.404c0,0-1.057,2.153-2.056,7.776c-5.701,3.425-9.788,12.774-9.788,23.766
				c0,11.001,4.088,20.346,9.788,23.766c0.999,5.623,2.056,7.776,2.056,7.776h14.909c0,0-1.613-3.274-2.714-12.336
				c3.157-4.619,5.16-11.498,5.16-19.206c0-7.698-2.003-14.597-5.16-19.206c1.101-9.063,2.714-12.336,2.714-12.336H993.272z"/>
			<path style="fill:#BBBAB8;" d="M1168.848,559.946c0,23.966-3.737,31.542-3.737,31.542h-14.904c0,0,3.727-7.576,3.727-31.542
				c0-23.961-3.727-31.542-3.727-31.542h14.904C1165.111,528.404,1168.848,535.984,1168.848,559.946z"/>
			<path style="fill:#BBBAB8;" d="M1182.475,559.946c0,23.966-3.727,31.542-3.727,31.542h-7.459c0,0,3.727-7.576,3.727-31.542
				c0-23.961-3.727-31.542-3.727-31.542h7.459C1178.748,528.404,1182.475,535.984,1182.475,559.946z"/>
		</g>
		<g>
			<path style="fill:#242F5E;" d="M1212.288,698.566c0,0,5.744,11.664,5.744,26.782c0,15.128-5.744,26.787-5.744,26.787H940.395
				c0,0-3.172-6.436-3.172-26.787c0-20.341,3.172-26.782,3.172-26.782H1212.288z"/>
			<path style="fill:#37457F;" d="M945.915,725.348c0,20.351,3.162,26.787,3.162,26.787h12.663c0,0-3.167-6.436-3.167-26.787
				c0-20.341,3.167-26.782,3.167-26.782h-12.663C949.077,698.566,945.915,705.007,945.915,725.348z"/>
			<path style="fill:#37457F;" d="M1198.3,725.348c0,20.351-3.162,26.787-3.162,26.787h-12.663c0,0,3.167-6.436,3.167-26.787
				c0-20.341-3.167-26.782-3.167-26.782h12.663C1195.138,698.566,1198.3,705.007,1198.3,725.348z"/>
			<path style="fill:#37457F;" d="M1209.876,725.348c0,20.351-3.167,26.787-3.167,26.787h-6.329c0,0,3.172-6.436,3.172-26.787
				c0-20.341-3.172-26.782-3.172-26.782h6.329C1206.709,698.566,1209.876,705.007,1209.876,725.348z"/>
		</g>
		<g>
			<path style="fill:#F18425;" d="M1169.062,591.487c0,0,5.734,11.664,5.734,26.787c0,15.123-5.734,26.777-5.734,26.777H983.62
				c0,0-3.162-6.431-3.162-26.777c0-20.346,3.162-26.787,3.162-26.787H1169.062z"/>
			<path style="fill:#F9BA81;" d="M1002.841,618.274c0,20.346,3.167,26.782,3.167,26.782h12.658c0,0-3.167-6.436-3.167-26.782
				c0-20.346,3.167-26.787,3.167-26.787h-12.658C1006.008,591.487,1002.841,597.928,1002.841,618.274z"/>
			<path style="fill:#F9BA81;" d="M1051.085,618.274c0,20.346,3.167,26.782,3.167,26.782h59.464c0,0,2.197-6.436,2.197-26.782
				c0-20.346-2.197-26.787-2.197-26.787h-59.464C1054.251,591.487,1051.085,597.928,1051.085,618.274z"/>
			<path style="fill:#F9BA81;" d="M991.265,618.274c0,20.346,3.167,26.782,3.167,26.782h6.329c0,0-3.162-6.436-3.162-26.782
				c0-20.346,3.162-26.787,3.162-26.787h-6.329C994.432,591.487,991.265,597.928,991.265,618.274z"/>
		</g>
		<g>
			<path style="fill:#26AAE1;" d="M1200.034,645.056c0,0,5.734,11.654,5.734,26.782c0,15.123-5.734,26.777-5.734,26.777H952.649
				c0,0-3.162-6.431-3.162-26.777c0-20.351,3.162-26.782,3.162-26.782H1200.034z"/>
			<path style="fill:#56BEEA;" d="M958.164,671.838c0,20.346,3.167,26.777,3.167,26.777h12.658c0,0-3.162-6.431-3.162-26.777
				c0-20.351,3.162-26.782,3.162-26.782h-12.658C961.331,645.056,958.164,651.487,958.164,671.838z"/>
		</g>
		<g>
			<path style="fill:#242F5E;" d="M932.907,913.095c0,0-5.998-12.18-5.998-27.995c0-15.805,5.998-27.995,5.998-27.995h284.204
				c0,0,3.303,6.723,3.303,27.995c0,21.262-3.303,27.995-3.303,27.995H932.907z"/>
			<path style="fill:#37457F;" d="M1211.342,885.1c0-21.272-3.313-27.995-3.313-27.995h-13.228c0,0,3.313,6.723,3.313,27.995
				c0,21.262-3.313,27.995-3.313,27.995h13.228C1208.03,913.095,1211.342,906.361,1211.342,885.1z"/>
			<path style="fill:#37457F;" d="M947.523,885.1c0-21.272,3.313-27.995,3.313-27.995h13.233c0,0-3.313,6.723-3.313,27.995
				c0,21.262,3.313,27.995,3.313,27.995h-13.233C950.836,913.095,947.523,906.361,947.523,885.1z"/>
			<path style="fill:#37457F;" d="M935.43,885.1c0-21.272,3.303-27.995,3.303-27.995h6.621c0,0-3.313,6.723-3.313,27.995
				c0,21.262,3.313,27.995,3.313,27.995h-6.621C938.734,913.095,935.43,906.361,935.43,885.1z"/>
		</g>
		<g>
			<path style="fill:#26AAE1;" d="M961.818,857.105c0,0-5.51-11.186-5.51-25.706c0-14.518,5.51-25.705,5.51-25.705h237.446
				c0,0,3.035,6.178,3.035,25.705c0,19.528-3.035,25.706-3.035,25.706H961.818z"/>
			<path style="fill:#56BEEA;" d="M1193.963,831.399c0-19.527-3.035-25.705-3.035-25.705h-12.151c0,0,3.04,6.178,3.04,25.705
				c0,19.528-3.04,25.706-3.04,25.706h12.151C1190.928,857.105,1193.963,850.927,1193.963,831.399z"/>
		</g>
		<g>
			<path style="fill:#0080A6;" d="M1073.954,1033.386h-1.325v-6.031V984.69h1.325c1.462,0,2.641-1.179,2.641-2.636
				c0-1.462,14.884-2.651,13.427-2.651H918.354c-16.361,0-29.627,13.272-29.627,29.642c0,16.356,13.267,29.622,29.627,29.622
				h169.978c1.457,0-11.737-1.179-11.737-2.641C1076.594,1034.571,1075.416,1033.386,1073.954,1033.386z"/>
			<path style="fill:#24ABE1;" d="M1234.617,1033.386h-155.595l0,0c-13.457,0-24.356-10.893-24.356-24.341
				c0-13.451,10.899-24.355,24.356-24.355l0,0h155.595c1.457,0,2.641-1.179,2.641-2.636c0-1.462-1.184-2.651-2.641-2.651h-155.595
				c-16.37,0-29.637,13.272-29.637,29.642c0,16.356,13.267,29.622,29.637,29.622l0,0h155.595c1.457,0,2.641-1.179,2.641-2.641
				C1237.257,1034.571,1236.073,1033.386,1234.617,1033.386z"/>
			<g>
				<path style="fill:#DDD7D5;" d="M1233.291,984.685h-147.887c-13.457,0-24.356,10.909-24.356,24.36
					c0,13.447,10.899,24.351,24.356,24.351h147.887V984.685z"/>
				<path style="fill:#C6BFB8;" d="M1233.291,1027.355H1081.9c-14.416,0-20.853-11.191-20.853-18.31
					c0-13.451,10.899-24.36,24.356-24.36h-6.358c-13.452,0-24.356,10.909-24.356,24.36c0,13.447,10.904,24.351,24.356,24.351
					h154.245V1027.355z"/>
			</g>
			<g>
				<g>
					<path style="fill:#A89F9E;" d="M1093.399,994.186c19.493-0.56,38.987-0.419,58.48-0.653c19.493,0.232,38.986,0.087,58.48,0.653
						c-19.494,0.565-38.987,0.422-58.48,0.653C1132.385,994.605,1112.892,994.746,1093.399,994.186z"/>
				</g>
				<g>
					<path style="fill:#A89F9E;" d="M1067.957,1009.046c14.867-0.458,29.734-0.341,44.601-0.533
						c14.867,0.188,29.735,0.073,44.602,0.533c-14.867,0.461-29.735,0.346-44.602,0.534
						C1097.691,1009.387,1082.824,1009.504,1067.957,1009.046z"/>
				</g>
				<g>
					<path style="fill:#A89F9E;" d="M1116.658,1022.132c19.44-0.458,38.877-0.341,58.317-0.533
						c19.44,0.188,38.877,0.073,58.316,0.533c-19.439,0.46-38.876,0.346-58.316,0.533
						C1155.535,1022.473,1136.098,1022.59,1116.658,1022.132z"/>
				</g>
				<g>
					<path style="fill:#A89F9E;" d="M1108.838,1014.415c20.743-0.458,41.484-0.341,62.227-0.533
						c20.743,0.188,41.483,0.073,62.226,0.533c-20.743,0.461-41.483,0.346-62.226,0.533
						C1150.322,1014.756,1129.581,1014.873,1108.838,1014.415z"/>
				</g>
				<g>
					<path style="fill:#A89F9E;" d="M1108.838,1000.744c10.37-0.297,20.743-0.512,31.113-0.619l31.113-0.188l31.113,0.185
						c10.37,0.109,20.743,0.321,31.113,0.621c-10.37,0.299-20.743,0.511-31.113,0.621l-31.113,0.185l-31.113-0.188
						C1129.581,1001.255,1119.208,1001.041,1108.838,1000.744z"/>
				</g>
				<g>
					<path style="fill:#A89F9E;" d="M1183.932,989.421c16.453-0.716,32.906-0.723,49.359,0
						C1216.838,990.145,1200.385,990.137,1183.932,989.421z"/>
				</g>
				<g>
					<path style="fill:#A89F9E;" d="M1090.729,1029.031c22.305-0.458,44.609-0.341,66.914-0.533
						c22.304,0.188,44.609,0.073,66.913,0.533c-22.304,0.46-44.609,0.346-66.913,0.533
						C1135.338,1029.372,1113.033,1029.489,1090.729,1029.031z"/>
				</g>
				<g>
					<path style="fill:#A89F9E;" d="M1086.48,1003.843c8.024-0.668,16.051-0.711,24.076-0.807
						c8.024,0.093,16.051,0.134,24.075,0.807c-8.024,0.672-16.051,0.713-24.075,0.806
						C1102.531,1004.554,1094.505,1004.51,1086.48,1003.843z"/>
				</g>
			</g>
		</g>
		<g>
			<path style="fill:#00682A;" d="M1111.425,1084.826h-1.418v-36.765h1.418c2.587,0,4.692-2.115,4.692-4.697
				c0-2.592-2.105-4.697-4.692-4.697H869.36c-14.173,1.238-25.34,13.277-25.34,27.771c0,14.5,11.166,26.534,25.34,27.776h242.065
				c2.587,0,4.692-2.104,4.692-4.692C1116.117,1086.931,1114.012,1084.826,1111.425,1084.826z"/>
			<g>
				<path style="fill:#DDD7D5;" d="M1270.66,1048.062h-175.264c-10.08,0-18.256,8.224-18.256,18.377
					c0,10.154,8.176,18.388,18.256,18.388h175.264V1048.062z"/>
				<path style="fill:#19A338;" d="M1272.093,1084.826h-181.52c-10.056-0.107-18.202-8.312-18.202-18.388
					c0-10.07,8.146-18.28,18.202-18.377h181.52c2.582,0,4.687-2.115,4.687-4.697c0-2.592-2.104-4.697-4.687-4.697h-183.761
					c-14.183,1.238-25.34,13.277-25.34,27.771c0,14.5,11.157,26.534,25.34,27.776h183.761c2.582,0,4.687-2.104,4.687-4.692
					C1276.779,1086.931,1274.675,1084.826,1272.093,1084.826z"/>
				<g>
					<g>
						<path style="fill:#A89F9E;" d="M1117.408,1054.873c22.273-0.48,44.548-0.358,66.821-0.558
							c22.273,0.197,44.548,0.075,66.821,0.558c-22.273,0.482-44.548,0.361-66.821,0.558
							C1161.956,1055.231,1139.681,1055.353,1117.408,1054.873z"/>
					</g>
					<g>
						<path style="fill:#A89F9E;" d="M1095.655,1066.439c15.741-0.392,31.483-0.292,47.225-0.455
							c15.741,0.161,31.483,0.061,47.225,0.455c-15.742,0.395-31.484,0.295-47.225,0.456
							C1127.138,1066.731,1111.396,1066.832,1095.655,1066.439z"/>
					</g>
					<g>
						<path style="fill:#A89F9E;" d="M1137.301,1074.741c22.227-0.392,44.453-0.292,66.679-0.455
							c22.227,0.161,44.453,0.061,66.68,0.455c-22.227,0.395-44.453,0.295-66.68,0.456
							C1181.754,1075.033,1159.528,1075.133,1137.301,1074.741z"/>
					</g>
					<g>
						<path style="fill:#A89F9E;" d="M1130.612,1069.82c23.342-0.392,46.682-0.292,70.024-0.456
							c23.342,0.161,46.682,0.061,70.025,0.456c-23.342,0.395-46.682,0.295-70.025,0.455
							C1177.294,1070.113,1153.954,1070.213,1130.612,1069.82z"/>
					</g>
					<g>
						<path style="fill:#A89F9E;" d="M1130.612,1060.475c23.342-0.594,46.682-0.443,70.024-0.689
							c23.342,0.244,46.682,0.093,70.025,0.689c-23.342,0.597-46.682,0.446-70.025,0.69
							C1177.294,1060.919,1153.954,1061.07,1130.612,1060.475z"/>
					</g>
					<g>
						<path style="fill:#A89F9E;" d="M1228.468,1050.805c7.033-0.393,14.063-0.292,21.097-0.456
							c7.032,0.161,14.063,0.061,21.096,0.456c-7.033,0.395-14.064,0.294-21.096,0.456
							C1242.531,1051.097,1235.501,1051.197,1228.468,1050.805z"/>
					</g>
					<g>
						<path style="fill:#A89F9E;" d="M1115.123,1077.616c24.68-0.392,49.359-0.292,74.039-0.456
							c24.68,0.161,49.359,0.061,74.039,0.456c-24.68,0.395-49.359,0.295-74.039,0.455
							C1164.483,1077.908,1139.803,1078.008,1115.123,1077.616z"/>
					</g>
					<g>
						<path style="fill:#A89F9E;" d="M1111.479,1063.136c9.893-0.57,19.788-0.609,29.681-0.689
							c9.893,0.078,19.788,0.114,29.681,0.689c-9.893,0.575-19.788,0.612-29.681,0.689
							C1131.267,1063.745,1121.372,1063.706,1111.479,1063.136z"/>
					</g>
				</g>
				<path style="fill:#C6BFB8;" d="M1094.612,1079.73c-13.399,0-17.472-9.481-17.472-13.291c0-10.153,8.176-18.377,18.256-18.377
					h-4.76c-10.09,0-18.265,8.224-18.265,18.377c0,10.154,8.175,18.388,18.265,18.388h180.024v-5.096H1094.612z"/>
			</g>
		</g>
		<g>
			<path style="fill:#49558A;" d="M1102.495,1100.144c1.637,0,2.968-1.33,2.968-2.967c0-1.637-1.33-2.962-2.968-2.962H939.942
				c-6.421,0.575-12.38,3.542-16.789,8.356c-4.453,4.853-6.899,11.133-6.899,17.686c0,6.558,2.446,12.843,6.899,17.695
				c4.409,4.809,10.368,7.776,16.789,8.351h162.553c1.637,0,2.968-1.33,2.968-2.967c0-1.632-1.33-2.967-2.968-2.967h-0.536v-40.224
				H1102.495z"/>
			<path style="fill:#DDD7D5;" d="M1228.136,1100.105h-120.049c-11.055,0-20.015,9.018-20.015,20.151
				c0,11.133,8.96,20.161,20.015,20.161h120.049V1100.105z"/>
			<path style="fill:#5C6CB1;" d="M1228.673,1140.368h-125.91h-0.01h-0.005c-10.972-0.117-19.902-9.14-19.902-20.112
				c0-10.977,8.93-19.995,19.902-20.112h0.005h0.01h125.91c1.637,0,2.962-1.33,2.962-2.967c0-1.637-1.325-2.962-2.962-2.962
				h-128.068c-6.421,0.575-12.385,3.542-16.789,8.356c-4.448,4.853-6.904,11.133-6.904,17.686c0,6.558,2.456,12.843,6.904,17.695
				c4.404,4.809,10.368,7.776,16.789,8.351h128.068c1.637,0,2.962-1.33,2.962-2.967
				C1231.635,1141.703,1230.309,1140.368,1228.673,1140.368z"/>
			<g>
				<g>
					<path style="fill:#A89F9E;" d="M1142.008,1107.569c7.569-0.507,15.137-0.541,22.706-0.614
						c7.569,0.073,15.138,0.102,22.707,0.614c-7.569,0.511-15.138,0.541-22.707,0.614
						C1157.145,1108.11,1149.577,1108.076,1142.008,1107.569z"/>
				</g>
				<g>
					<path style="fill:#A89F9E;" d="M1108.366,1120.256c19.559-0.672,39.12-0.677,58.679,0
						C1147.486,1120.933,1127.925,1120.928,1108.366,1120.256z"/>
				</g>
				<g>
					<path style="fill:#A89F9E;" d="M1163.81,1129.358c21.442-0.672,42.884-0.677,64.326,0
						C1206.694,1130.035,1185.252,1130.03,1163.81,1129.358z"/>
				</g>
				<g>
					<path style="fill:#A89F9E;" d="M1156.478,1123.964c23.885-0.672,47.773-0.682,71.658,0
						C1204.251,1124.646,1180.363,1124.636,1156.478,1123.964z"/>
				</g>
				<g>
					<path style="fill:#A89F9E;" d="M1156.478,1113.718c11.944-0.624,23.885-0.667,35.829-0.755
						c11.944,0.088,23.885,0.127,35.829,0.755c-11.944,0.629-23.885,0.667-35.829,0.755
						C1180.363,1114.385,1168.422,1114.342,1156.478,1113.718z"/>
				</g>
				<g>
					<path style="fill:#A89F9E;" d="M1162.655,1103.116c21.827-0.672,43.654-0.677,65.481,0
						C1206.309,1103.794,1184.482,1103.789,1162.655,1103.116z"/>
				</g>
				<g>
					<path style="fill:#A89F9E;" d="M1139.503,1132.51c16.87-0.672,33.737-0.682,50.607,0
						C1173.24,1133.192,1156.373,1133.182,1139.503,1132.51z"/>
				</g>
				<g>
					<path style="fill:#A89F9E;" d="M1135.523,1116.631c7.481-0.624,14.965-0.667,22.446-0.755
						c7.481,0.088,14.965,0.127,22.446,0.755c-7.481,0.629-14.965,0.667-22.446,0.755
						C1150.488,1117.299,1143.004,1117.255,1135.523,1116.631z"/>
				</g>
			</g>
			<path style="fill:#C6BFB8;" d="M1107.226,1134.833c-14.685,0-19.152-10.397-19.152-14.577c0-11.133,8.96-20.151,20.015-20.151
				h-5.222c-11.06,0-20.02,9.018-20.02,20.151c0,11.133,8.96,20.161,20.02,20.161h125.271v-5.584H1107.226z"/>
		</g>
	</g>
	<g>
		<path style="fill:#C7AFAD;" d="M1216.745,1413.693h421.793l10.114-35.756l-17.34-24.56c0,0-5.773-28.892-11.557-25.997
			c-5.778,2.889-18.777,5.778-18.777,5.778l-8.663-15.893l-11.829-18.777l-14.178-14.441c0,0-28.891-10.109-33.227-10.109
			c-4.326,0-14.441,0-14.441,0s-14.373-14.446-23.079-20.229c-8.697-5.783-43.367,0-43.367,0l-12.999,8.667
			c0,0-59.225-20.224-63.552-18.777c-4.336,1.442-20.224,23.113-20.224,23.113l-8.682,8.663l-17.32-10.11l-13.008,12.999
			l-51.995,28.896l-30.338,21.452l14.446,23.323l-21.661,12.998l-10.115,11.557V1413.693z"/>
		<g>
			<polygon style="fill:#DCC6C0;" points="1314.87,1393.366 1296.931,1348.246 1352.073,1290.351 1383.41,1300.339 
				1407.23,1276.383 1433.247,1267.15 1503.795,1298.37 1544.95,1321.542 1525.349,1346.745 1554.738,1360.792 1568.462,1373.274 
				1568.462,1413.469 1304.453,1413.469 			"/>
			<g>
				<polygon style="fill:#C7A6A8;" points="1433.247,1267.15 1486.767,1290.828 1486.933,1309.528 1449.573,1309.528 
					1443.907,1330.263 1443.907,1359.116 1413.344,1357.313 1375.995,1413.469 1345.427,1413.469 1345.427,1396.076 
					1314.87,1393.366 1314.87,1369.932 1344.302,1353.698 1323.922,1345.586 1354.484,1335.671 1366.933,1306.819 
					1380.516,1350.093 1345.427,1378.945 1375.995,1397.878 1392.112,1366.326 1411.084,1346.488 1430.329,1348.29 
					1431.459,1335.671 1415.61,1306.819 1431.459,1321.542 1433.72,1307.725 1420.146,1279.779 1440.511,1296.909 
					1472.224,1298.712 1472.224,1292.397 				"/>
				<polygon style="fill:#C7A6A8;" points="1450.708,1399.681 1450.708,1385.255 1514.094,1376.236 1484.662,1371.871 
					1469.948,1344.68 1505.037,1330.263 1485.788,1346.745 1493.715,1366.326 1519.201,1369.026 1525.349,1346.745 
					1529.944,1377.143 1469.948,1391.564 1568.462,1413.469 1495.98,1413.469 				"/>
			</g>
		</g>
		<polygon style="fill:#9F1D19;" points="1495.561,1846.097 1565.778,1846.097 1665.417,1413.693 1495.561,1413.693 		"/>
		<polygon style="fill:#D22E1A;" points="1294.762,1846.097 1495.561,1846.097 1495.561,1413.693 1197.91,1413.693 		"/>
		<g>
			<polygon style="fill:#EBD8CF;" points="1410.48,1398.648 1423.693,1365.391 1383.05,1322.716 1359.951,1330.078 
				1342.397,1312.417 1323.22,1305.62 1271.211,1328.626 1240.872,1345.708 1255.313,1364.28 1233.652,1374.638 1223.547,1383.837 
				1223.547,1413.469 1418.153,1413.469 			"/>
			<g>
				<polygon style="fill:#CEB9AF;" points="1323.22,1305.62 1283.771,1323.072 1283.644,1336.85 1311.177,1336.85 
					1315.347,1352.129 1315.347,1373.401 1337.88,1372.066 1365.413,1413.469 1387.951,1413.469 1387.951,1400.645 
					1410.48,1398.648 1410.48,1381.371 1388.784,1369.411 1403.805,1363.432 1381.271,1356.124 1372.097,1334.863 
					1362.085,1366.755 1387.951,1388.017 1365.413,1401.975 1353.53,1378.711 1339.547,1364.095 1325.364,1365.42 
					1324.531,1356.124 1336.21,1334.863 1324.531,1345.708 1322.865,1335.52 1332.882,1314.916 1317.861,1327.55 1294.48,1328.88 
					1294.48,1324.232 				"/>
				<polygon style="fill:#CEB9AF;" points="1310.353,1403.306 1310.353,1392.665 1263.625,1386.025 1285.316,1382.804 
					1296.166,1362.765 1270.3,1352.129 1284.477,1364.28 1278.641,1378.711 1259.849,1380.709 1255.313,1364.28 1251.941,1386.692 
					1296.166,1397.323 1223.547,1413.469 1276.969,1413.469 				"/>
			</g>
		</g>
		<g>
			<polygon style="fill:#EBD8CF;" points="1455.02,1398.648 1441.797,1365.391 1482.446,1322.716 1505.549,1330.078 
				1523.103,1312.417 1542.28,1305.62 1594.285,1328.626 1624.628,1345.708 1610.177,1364.28 1631.844,1374.638 1641.953,1383.837 
				1641.953,1413.469 1447.342,1413.469 			"/>
			<g>
				<polygon style="fill:#CEB9AF;" points="1542.28,1305.62 1581.729,1323.072 1581.851,1336.85 1554.313,1336.85 
					1550.143,1352.129 1550.143,1373.401 1527.615,1372.066 1500.078,1413.469 1477.549,1413.469 1477.549,1400.645 
					1455.02,1398.648 1455.02,1381.371 1476.716,1369.411 1461.695,1363.432 1484.224,1356.124 1493.398,1334.863 
					1503.415,1366.755 1477.549,1388.017 1500.078,1401.975 1511.961,1378.711 1525.948,1364.095 1540.126,1365.42 
					1540.969,1356.124 1529.281,1334.863 1540.969,1345.708 1542.635,1335.52 1532.618,1314.916 1547.639,1327.55 1571.015,1328.88 
					1571.015,1324.232 				"/>
				<polygon style="fill:#CEB9AF;" points="1555.147,1403.306 1555.147,1392.665 1601.875,1386.025 1580.18,1382.804 
					1569.339,1362.765 1595.201,1352.129 1581.013,1364.28 1586.859,1378.711 1605.646,1380.709 1610.177,1364.28 
					1613.558,1386.692 1569.339,1397.323 1641.953,1413.469 1588.53,1413.469 				"/>
			</g>
		</g>
	</g>
	<g>
		<g>
			<path style="fill:#F18425;" d="M1546.07,1673.288h341.69l0,0c15.045,0,27.24-12.2,27.24-27.245
				c0-15.05-12.195-27.245-27.24-27.245l0,0h-341.69c-1.637,0-2.953-1.325-2.953-2.958c0-1.632,1.316-2.958,2.953-2.958h341.69
				c18.309,0,33.15,14.845,33.15,33.16c0,18.309-14.84,33.155-33.15,33.155l0,0h-341.69c-1.637,0-2.953-1.32-2.953-2.957
				C1543.118,1674.604,1544.433,1673.288,1546.07,1673.288z"/>
			<g>
				<path style="fill:#DDD7D5;" d="M1547.546,1618.789h333.062c15.055,0,27.255,12.2,27.255,27.255
					c0,15.05-12.2,27.255-27.255,27.255h-333.062V1618.789z"/>
				<path style="fill:#C6BFB8;" d="M1547.546,1666.531h336.978c16.127,0,23.338-12.516,23.338-20.487
					c0-15.055-12.2-27.255-27.255-27.255h7.108c15.055,0,27.26,12.2,27.26,27.255c0,15.05-12.205,27.255-27.26,27.255h-340.17
					V1666.531z"/>
			</g>
			<g>
				<g>
					<g>
						<path style="fill:#A89F9E;" d="M1871.663,1629.42c-34.551,0.448-69.099,0.336-103.649,0.521
							c-34.551-0.185-69.099-0.068-103.649-0.521c34.551-0.453,69.099-0.336,103.649-0.521
							C1802.564,1629.084,1837.112,1628.972,1871.663,1629.42z"/>
					</g>
				</g>
				<g>
					<g>
						<path style="fill:#A89F9E;" d="M1900.125,1646.043c-29.371,0.366-58.743,0.273-88.114,0.429
							c-29.371-0.151-58.743-0.059-88.114-0.429c29.371-0.37,58.743-0.277,88.114-0.429
							C1841.383,1645.77,1870.754,1645.678,1900.125,1646.043z"/>
					</g>
				</g>
				<g>
					<g>
						<polygon style="fill:#A89F9E;" points="1845.636,1660.689 1696.591,1661.118 1547.546,1660.689 1696.591,1660.26 						"/>
					</g>
				</g>
				<g>
					<g>
						<polygon style="fill:#A89F9E;" points="1854.386,1652.061 1700.967,1652.484 1547.546,1652.061 1700.967,1651.636 						"/>
					</g>
				</g>
				<g>
					<g>
						<path style="fill:#A89F9E;" d="M1854.386,1636.757c-51.14,0.555-102.28,0.414-153.42,0.643
							c-51.14-0.224-102.28-0.088-153.42-0.643c51.14-0.555,102.28-0.419,153.42-0.643
							C1752.106,1636.343,1803.246,1636.202,1854.386,1636.757z"/>
					</g>
				</g>
				<g>
					<g>
						<path style="fill:#A89F9E;" d="M1693.928,1624.1c-24.397,0.365-48.794,0.273-73.191,0.428
							c-24.397-0.151-48.794-0.058-73.191-0.428c24.397-0.37,48.794-0.278,73.191-0.429
							C1645.134,1623.827,1669.532,1623.734,1693.928,1624.1z"/>
					</g>
				</g>
				<g>
					<g>
						<polygon style="fill:#A89F9E;" points="1874.645,1668.406 1715.982,1668.835 1557.32,1668.406 1715.982,1667.978 						"/>
					</g>
				</g>
				<g>
					<g>
						<path style="fill:#A89F9E;" d="M1879.41,1640.226c-21.718,0.555-43.438,0.414-65.155,0.643
							c-21.717-0.224-43.438-0.088-65.155-0.643c21.717-0.555,43.437-0.419,65.155-0.643
							C1835.972,1639.812,1857.692,1639.671,1879.41,1640.226z"/>
					</g>
				</g>
			</g>
		</g>
		<g>
			<path style="fill:#69B546;" d="M1827.434,1451.92c0,0,5.739,11.654,5.739,26.787c0,15.128-5.739,26.782-5.739,26.782h-185.442
				c0,0-3.162-6.436-3.162-26.782c0-20.346,3.162-26.787,3.162-26.787H1827.434z"/>
			<path style="fill:#8FC043;" d="M1679.8,1465.63c7.221,0,13.077,5.856,13.077,13.077s-5.856,13.077-13.077,13.077
				c-7.226,0-13.072-5.856-13.072-13.077S1672.574,1465.63,1679.8,1465.63z"/>
			<path style="fill:#8FC043;" d="M1647.507,1478.706c0,20.346,3.172,26.782,3.172,26.782h12.663c0,0-3.172-6.436-3.172-26.782
				c0-20.346,3.172-26.787,3.172-26.787h-12.663C1650.679,1451.92,1647.507,1458.36,1647.507,1478.706z"/>
			<path style="fill:#8FC043;" d="M1813.441,1478.706c0,20.346-3.167,26.782-3.167,26.782h-12.653c0,0,3.162-6.436,3.162-26.782
				c0-20.346-3.162-26.787-3.162-26.787h12.653C1810.274,1451.92,1813.441,1458.36,1813.441,1478.706z"/>
			<path style="fill:#8FC043;" d="M1825.017,1478.706c0,20.346-3.167,26.782-3.167,26.782h-6.324c0,0,3.162-6.436,3.162-26.782
				c0-20.346-3.162-26.787-3.162-26.787h6.324C1821.85,1451.92,1825.017,1458.36,1825.017,1478.706z"/>
		</g>
		<g>
			<path style="fill:#999A9C;" d="M1843.687,1228.193c0,0,6.763,13.73,6.763,31.547c0,17.807-6.763,31.537-6.763,31.537h-218.406
				c0,0-3.732-7.571-3.732-31.537c0-23.966,3.732-31.547,3.732-31.547H1843.687z"/>
			<path style="fill:#BBBAB8;" d="M1651.639,1228.193c0,0-1.053,2.149-2.047,7.776c-5.701,3.425-9.793,12.77-9.793,23.771
				c0,10.996,4.092,20.331,9.793,23.766c0.994,5.628,2.047,7.771,2.047,7.771h14.913c0,0-1.613-3.274-2.714-12.331
				c3.157-4.614,5.164-11.503,5.164-19.206c0-7.703-2.007-14.597-5.164-19.211c1.101-9.062,2.714-12.336,2.714-12.336H1651.639z"/>
			<path style="fill:#BBBAB8;" d="M1827.219,1259.74c0,23.966-3.732,31.537-3.732,31.537h-14.909c0,0,3.727-7.571,3.727-31.537
				c0-23.966-3.727-31.547-3.727-31.547h14.909C1823.488,1228.193,1827.219,1235.774,1827.219,1259.74z"/>
			<path style="fill:#BBBAB8;" d="M1840.851,1259.74c0,23.966-3.732,31.537-3.732,31.537h-7.454c0,0,3.722-7.571,3.722-31.537
				c0-23.966-3.722-31.547-3.722-31.547h7.454C1837.12,1228.193,1840.851,1235.774,1840.851,1259.74z"/>
		</g>
		<g>
			<path style="fill:#242F5E;" d="M1870.659,1398.355c0,0,5.739,11.664,5.739,26.787c0,15.123-5.739,26.777-5.739,26.777h-271.893
				c0,0-3.162-6.431-3.162-26.777s3.162-26.787,3.162-26.787H1870.659z"/>
			<path style="fill:#37457F;" d="M1604.282,1425.143c0,20.346,3.172,26.777,3.172,26.777h12.653c0,0-3.161-6.431-3.161-26.777
				s3.161-26.787,3.161-26.787h-12.653C1607.454,1398.355,1604.282,1404.797,1604.282,1425.143z"/>
			<path style="fill:#37457F;" d="M1856.676,1425.143c0,20.346-3.167,26.777-3.167,26.777h-12.658c0,0,3.157-6.431,3.157-26.777
				s-3.157-26.787-3.157-26.787h12.658C1853.51,1398.355,1856.676,1404.797,1856.676,1425.143z"/>
			<path style="fill:#37457F;" d="M1868.252,1425.143c0,20.346-3.177,26.777-3.177,26.777h-6.324c0,0,3.167-6.431,3.167-26.777
				s-3.167-26.787-3.167-26.787h6.324C1865.076,1398.355,1868.252,1404.797,1868.252,1425.143z"/>
		</g>
		<g>
			<path style="fill:#F18425;" d="M1827.434,1291.277c0,0,5.739,11.663,5.739,26.781c0,15.128-5.739,26.782-5.739,26.782h-185.442
				c0,0-3.162-6.431-3.162-26.782c0-20.341,3.162-26.781,3.162-26.781H1827.434z"/>
			<path style="fill:#F9BA81;" d="M1661.207,1318.058c0,20.351,3.172,26.787,3.172,26.787h12.663c0,0-3.172-6.436-3.172-26.787
				c0-20.341,3.172-26.781,3.172-26.781h-12.663C1664.38,1291.277,1661.207,1297.718,1661.207,1318.058z"/>
			<path style="fill:#F9BA81;" d="M1709.456,1318.058c0,20.351,3.162,26.787,3.162,26.787h59.479c0,0,2.188-6.436,2.188-26.787
				c0-20.341-2.188-26.781-2.188-26.781h-59.479C1712.618,1291.277,1709.456,1297.718,1709.456,1318.058z"/>
			<path style="fill:#F9BA81;" d="M1649.641,1318.058c0,20.351,3.167,26.787,3.167,26.787h6.324c0,0-3.162-6.436-3.162-26.787
				c0-20.341,3.162-26.781,3.162-26.781h-6.324C1652.808,1291.277,1649.641,1297.718,1649.641,1318.058z"/>
		</g>
		<g>
			<path style="fill:#26AAE1;" d="M1858.401,1344.846c0,0,5.74,11.654,5.74,26.782c0,15.123-5.74,26.777-5.74,26.777h-247.376
				c0,0-3.167-6.431-3.167-26.777c0-20.346,3.167-26.782,3.167-26.782H1858.401z"/>
			<path style="fill:#56BEEA;" d="M1616.535,1371.627c0,20.346,3.172,26.777,3.172,26.777h12.653c0,0-3.162-6.431-3.162-26.777
				c0-20.346,3.162-26.782,3.162-26.782h-12.653C1619.707,1344.846,1616.535,1351.281,1616.535,1371.627z"/>
		</g>
		<g>
			<path style="fill:#242F5E;" d="M1591.283,1612.884c0,0-6.002-12.185-6.002-27.99c0-15.81,6.002-27.995,6.002-27.995h284.199
				c0,0,3.313,6.728,3.313,27.995c0,21.267-3.313,27.99-3.313,27.99H1591.283z"/>
			<path style="fill:#37457F;" d="M1869.724,1584.894c0-21.267-3.313-27.995-3.313-27.995h-13.233c0,0,3.304,6.728,3.304,27.995
				c0,21.267-3.304,27.99-3.304,27.99h13.233C1866.411,1612.884,1869.724,1606.161,1869.724,1584.894z"/>
			<path style="fill:#37457F;" d="M1605.905,1584.894c0-21.267,3.308-27.995,3.308-27.995h13.222c0,0-3.303,6.728-3.303,27.995
				c0,21.267,3.303,27.99,3.303,27.99h-13.222C1609.213,1612.884,1605.905,1606.161,1605.905,1584.894z"/>
			<path style="fill:#37457F;" d="M1593.802,1584.894c0-21.267,3.313-27.995,3.313-27.995h6.611c0,0-3.308,6.728-3.308,27.995
				c0,21.267,3.308,27.99,3.308,27.99h-6.611C1597.115,1612.884,1593.802,1606.161,1593.802,1584.894z"/>
		</g>
		<g>
			<path style="fill:#26AAE1;" d="M1620.185,1556.899c0,0-5.505-11.191-5.505-25.71c0-14.509,5.505-25.7,5.505-25.7h237.446
				c0,0,3.04,6.178,3.04,25.7c0,19.533-3.04,25.71-3.04,25.71H1620.185z"/>
			<path style="fill:#56BEEA;" d="M1852.34,1531.188c0-19.522-3.04-25.7-3.04-25.7h-12.151c0,0,3.04,6.178,3.04,25.7
				c0,19.533-3.04,25.71-3.04,25.71h12.151C1849.3,1556.899,1852.34,1550.721,1852.34,1531.188z"/>
		</g>
		<g>
			<path style="fill:#0080A6;" d="M1732.33,1733.181h-1.32v-6.041v-42.655h1.32c1.457,0,2.636-1.184,2.636-2.65
				c0-1.452,14.889-2.636,13.432-2.636h-171.663c-16.37,0-29.632,13.272-29.632,29.627c0,16.37,13.262,29.632,29.632,29.632h169.968
				c1.462,0-11.737-1.179-11.737-2.641C1734.966,1734.36,1733.787,1733.181,1732.33,1733.181z"/>
			<path style="fill:#24ABE1;" d="M1892.993,1733.181h-155.6l0,0c-13.452,0-24.355-10.899-24.355-24.355
				c0-13.447,10.904-24.341,24.355-24.341l0,0h155.6c1.452,0,2.641-1.184,2.641-2.65c0-1.452-1.189-2.636-2.641-2.636h-155.6
				c-16.37,0-29.637,13.272-29.637,29.627c0,16.37,13.267,29.632,29.637,29.632l0,0h155.6c1.452,0,2.641-1.179,2.641-2.641
				C1895.633,1734.36,1894.444,1733.181,1892.993,1733.181z"/>
			<g>
				<path style="fill:#DDD7D5;" d="M1891.668,1684.475H1743.78c-13.457,0-24.36,10.903-24.36,24.35
					c0,13.457,10.903,24.36,24.36,24.36h147.888V1684.475z"/>
				<path style="fill:#C6BFB8;" d="M1891.668,1727.14h-151.386c-14.421,0-20.862-11.191-20.862-18.314
					c0-13.447,10.903-24.35,24.36-24.35h-6.358c-13.457,0-24.355,10.903-24.355,24.35c0,13.457,10.898,24.36,24.355,24.36h154.246
					V1727.14z"/>
			</g>
			<g>
				<g>
					<path style="fill:#A89F9E;" d="M1751.775,1693.98c19.494-0.56,38.989-0.419,58.482-0.653
						c19.493,0.229,38.989,0.087,58.482,0.653c-19.493,0.565-38.989,0.424-58.482,0.653
						C1790.764,1694.399,1771.268,1694.54,1751.775,1693.98z"/>
				</g>
				<g>
					<path style="fill:#A89F9E;" d="M1726.338,1708.825c14.865-0.458,29.732-0.341,44.597-0.536
						c14.865,0.19,29.732,0.073,44.597,0.536c-14.864,0.463-29.732,0.346-44.597,0.536
						C1756.07,1709.167,1741.203,1709.283,1726.338,1708.825z"/>
				</g>
				<g>
					<path style="fill:#A89F9E;" d="M1775.039,1721.921c19.437-0.458,38.877-0.341,58.314-0.536
						c19.437,0.19,38.877,0.073,58.314,0.536c-19.437,0.463-38.877,0.346-58.314,0.536
						C1813.916,1722.263,1794.476,1722.379,1775.039,1721.921z"/>
				</g>
				<g>
					<path style="fill:#A89F9E;" d="M1767.215,1714.204c20.743-0.458,41.483-0.341,62.226-0.536
						c20.743,0.19,41.484,0.073,62.227,0.536c-20.743,0.463-41.484,0.346-62.227,0.536
						C1808.698,1714.545,1787.958,1714.662,1767.215,1714.204z"/>
				</g>
				<g>
					<path style="fill:#A89F9E;" d="M1767.215,1700.533c10.37-0.297,20.743-0.511,31.113-0.619l31.113-0.19l31.114,0.185
						c10.37,0.112,20.743,0.326,31.113,0.624c-10.37,0.297-20.743,0.511-31.113,0.624l-31.114,0.185l-31.113-0.19
						C1787.958,1701.044,1777.585,1700.83,1767.215,1700.533z"/>
				</g>
				<g>
					<path style="fill:#A89F9E;" d="M1842.313,1689.22c16.451-0.716,32.904-0.726,49.354,0
						C1875.217,1689.946,1858.764,1689.936,1842.313,1689.22z"/>
				</g>
				<g>
					<path style="fill:#A89F9E;" d="M1749.1,1728.815c22.304-0.458,44.611-0.341,66.916-0.531
						c22.305,0.185,44.611,0.068,66.916,0.531c-22.304,0.463-44.611,0.346-66.916,0.531
						C1793.712,1729.156,1771.405,1729.273,1749.1,1728.815z"/>
				</g>
				<g>
					<path style="fill:#A89F9E;" d="M1744.852,1703.632c8.026-0.668,16.053-0.712,24.08-0.809
						c8.027,0.097,16.054,0.136,24.081,0.809c-8.027,0.672-16.054,0.711-24.081,0.809
						C1760.905,1704.343,1752.878,1704.299,1744.852,1703.632z"/>
				</g>
			</g>
		</g>
		<g>
			<path style="fill:#19A338;" d="M1769.807,1784.616h-1.427v-36.775h1.427c2.587,0,4.687-2.105,4.687-4.687
				c0-2.592-2.1-4.697-4.687-4.697h-242.065c-14.173,1.242-25.34,13.281-25.34,27.78c0,14.49,11.167,26.534,25.34,27.766h242.065
				c2.587,0,4.687-2.11,4.687-4.697C1774.494,1786.725,1772.394,1784.616,1769.807,1784.616z"/>
			<g>
				<path style="fill:#DDD7D5;" d="M1929.036,1747.841h-175.259c-10.09,0-18.265,8.234-18.265,18.397
					c0,10.149,8.176,18.378,18.265,18.378h175.259V1747.841z"/>
				<path style="fill:#18822C;" d="M1930.464,1784.616h-181.52c-10.051-0.097-18.193-8.312-18.193-18.378
					c0-10.085,8.141-18.29,18.193-18.397h181.52c2.587,0,4.692-2.105,4.692-4.687c0-2.592-2.105-4.697-4.692-4.697h-183.761
					c-14.173,1.242-25.335,13.281-25.335,27.78c0,14.49,11.162,26.534,25.335,27.766h183.761c2.587,0,4.692-2.11,4.692-4.697
					C1935.156,1786.725,1933.051,1784.616,1930.464,1784.616z"/>
				<g>
					<g>
						<path style="fill:#A89F9E;" d="M1775.785,1754.667c22.276-0.482,44.548-0.356,66.823-0.56
							c22.275,0.199,44.548,0.078,66.823,0.56c-22.275,0.483-44.548,0.361-66.823,0.56
							C1820.333,1755.023,1798.06,1755.149,1775.785,1754.667z"/>
					</g>
					<g>
						<path style="fill:#A89F9E;" d="M1754.026,1766.238c15.742-0.395,31.486-0.292,47.228-0.458
							c15.742,0.166,31.486,0.063,47.228,0.458c-15.741,0.395-31.486,0.292-47.228,0.458
							C1785.512,1766.53,1769.768,1766.633,1754.026,1766.238z"/>
					</g>
					<g>
						<path style="fill:#A89F9E;" d="M1795.678,1774.54c22.226-0.395,44.453-0.292,66.679-0.458
							c22.227,0.166,44.453,0.063,66.679,0.458c-22.227,0.395-44.453,0.292-66.679,0.458
							C1840.13,1774.833,1817.904,1774.935,1795.678,1774.54z"/>
					</g>
					<g>
						<path style="fill:#A89F9E;" d="M1788.983,1769.61c23.342-0.395,46.684-0.292,70.027-0.458
							c23.342,0.166,46.684,0.063,70.026,0.458c-23.342,0.395-46.684,0.292-70.026,0.458
							C1835.668,1769.902,1812.326,1770.004,1788.983,1769.61z"/>
					</g>
					<g>
						<path style="fill:#A89F9E;" d="M1788.983,1760.27c23.342-0.594,46.684-0.443,70.027-0.687
							c23.342,0.244,46.684,0.093,70.026,0.687c-23.342,0.595-46.684,0.443-70.026,0.687
							C1835.668,1760.713,1812.326,1760.864,1788.983,1760.27z"/>
					</g>
					<g>
						<path style="fill:#A89F9E;" d="M1886.834,1750.599c7.033-0.395,14.068-0.292,21.101-0.458
							c7.033,0.166,14.068,0.063,21.101,0.458c-7.033,0.395-14.068,0.292-21.101,0.458
							C1900.903,1750.891,1893.867,1750.994,1886.834,1750.599z"/>
					</g>
					<g>
						<path style="fill:#A89F9E;" d="M1773.495,1777.41c24.682-0.395,49.361-0.292,74.044-0.458
							c24.682,0.161,49.361,0.063,74.044,0.458c-24.682,0.395-49.362,0.297-74.044,0.458
							C1822.856,1777.702,1798.177,1777.805,1773.495,1777.41z"/>
					</g>
					<g>
						<path style="fill:#A89F9E;" d="M1769.86,1762.925c9.893-0.57,19.786-0.609,29.679-0.692
							c9.893,0.083,19.786,0.117,29.678,0.692c-9.893,0.575-19.786,0.609-29.678,0.691
							C1789.646,1763.534,1779.753,1763.495,1769.86,1762.925z"/>
					</g>
				</g>
				<path style="fill:#C6BFB8;" d="M1752.988,1779.529c-13.394,0-17.476-9.486-17.476-13.291c0-10.163,8.176-18.397,18.265-18.397
					h-4.769c-10.08,0-18.256,8.234-18.256,18.397c0,10.149,8.176,18.378,18.256,18.378h180.029v-5.086H1752.988z"/>
			</g>
		</g>
		<g>
			<path style="fill:#49558A;" d="M1760.871,1799.938c1.637,0,2.967-1.33,2.967-2.967c0-1.637-1.33-2.967-2.967-2.967h-162.553
				c-6.421,0.575-12.375,3.542-16.795,8.356c-4.443,4.852-6.894,11.127-6.894,17.686c0,6.557,2.451,12.843,6.894,17.696
				c4.419,4.808,10.373,7.775,16.795,8.356h162.553c1.637,0,2.967-1.335,2.967-2.972c0-1.632-1.33-2.968-2.967-2.968h-0.536v-40.219
				H1760.871z"/>
			<path style="fill:#DDD7D5;" d="M1886.513,1799.895h-120.053c-11.055,0-20.01,9.023-20.01,20.151
				c0,11.138,8.955,20.161,20.01,20.161h120.053V1799.895z"/>
			<path style="fill:#5C6CB1;" d="M1887.049,1840.157h-125.91h-0.005h-0.009c-10.977-0.117-19.908-9.135-19.908-20.112
				c0-10.972,8.931-19.995,19.908-20.107h0.009h0.005h125.91c1.637,0,2.967-1.33,2.967-2.967c0-1.637-1.33-2.967-2.967-2.967
				h-128.073c-6.421,0.575-12.38,3.542-16.784,8.356c-4.453,4.852-6.909,11.127-6.909,17.686c0,6.557,2.456,12.843,6.909,17.696
				c4.404,4.808,10.363,7.775,16.784,8.356h128.073c1.637,0,2.967-1.335,2.967-2.972
				C1890.016,1841.493,1888.686,1840.157,1887.049,1840.157z"/>
			<g>
				<g>
					<path style="fill:#A89F9E;" d="M1800.384,1807.369c7.569-0.507,15.14-0.541,22.709-0.614c7.569,0.073,15.14,0.102,22.709,0.614
						c-7.569,0.511-15.14,0.541-22.709,0.614C1815.524,1807.909,1807.953,1807.875,1800.384,1807.369z"/>
				</g>
				<g>
					<path style="fill:#A89F9E;" d="M1766.742,1820.046c19.561-0.673,39.123-0.677,58.684,0
						C1805.865,1820.723,1786.303,1820.718,1766.742,1820.046z"/>
				</g>
				<g>
					<path style="fill:#A89F9E;" d="M1822.191,1829.147c21.44-0.672,42.882-0.677,64.322,0
						C1865.073,1829.824,1843.631,1829.819,1822.191,1829.147z"/>
				</g>
				<g>
					<path style="fill:#A89F9E;" d="M1814.854,1823.758c23.885-0.672,47.773-0.677,71.659,0
						C1862.627,1824.436,1838.74,1824.431,1814.854,1823.758z"/>
				</g>
				<g>
					<path style="fill:#A89F9E;" d="M1814.854,1813.507c11.944-0.624,23.885-0.667,35.829-0.755
						c11.944,0.083,23.885,0.127,35.83,0.755c-11.944,0.629-23.885,0.673-35.83,0.755
						C1838.74,1814.175,1826.798,1814.131,1814.854,1813.507z"/>
				</g>
				<g>
					<path style="fill:#A89F9E;" d="M1821.032,1802.905c21.827-0.672,43.654-0.677,65.481,0
						C1864.686,1803.583,1842.859,1803.578,1821.032,1802.905z"/>
				</g>
				<g>
					<path style="fill:#A89F9E;" d="M1797.88,1832.304c16.867-0.672,33.734-0.677,50.601,0
						C1831.614,1832.981,1814.747,1832.976,1797.88,1832.304z"/>
				</g>
				<g>
					<path style="fill:#A89F9E;" d="M1793.894,1816.426c7.484-0.624,14.967-0.668,22.451-0.755
						c7.483,0.088,14.967,0.127,22.451,0.755c-7.484,0.629-14.967,0.668-22.451,0.755
						C1808.861,1817.093,1801.378,1817.049,1793.894,1816.426z"/>
				</g>
			</g>
			<path style="fill:#C6BFB8;" d="M1765.602,1834.618c-14.689,0-19.152-10.392-19.152-14.573c0-11.128,8.955-20.151,20.01-20.151
				h-5.223c-11.05,0-20.019,9.023-20.019,20.151c0,11.138,8.97,20.161,20.019,20.161h125.276v-5.588H1765.602z"/>
		</g>
	</g>
</g>
</svg>
