<?xml version="1.0" encoding="utf-8"?>
<!-- Generator: Adobe Illustrator 27.5.0, SVG Export Plug-In . SVG Version: 6.00 Build 0)  -->
<svg version="1.1" id="Layer_1" xmlns="http://www.w3.org/2000/svg" xmlns:xlink="http://www.w3.org/1999/xlink" x="0px" y="0px"
	 viewBox="0 0 288 288" style="enable-background:new 0 0 288 288;" xml:space="preserve">
<g opacity="0.5">
	<rect y="0" style="fill:#FAFAFA;" width="288" height="288"/>
	<g>
		<g>
			<path d="M199.636,82.137l-0.176-1.352c1.022-0.134,1.932-0.657,2.561-1.476c0.629-0.818,0.901-1.833,0.768-2.855
				c-0.134-1.023-0.658-1.934-1.476-2.562c-0.817-0.629-1.83-0.902-2.855-0.768l-0.177-1.352c1.384-0.184,2.755,0.187,3.862,1.038
				c1.107,0.851,1.816,2.081,1.997,3.466c0.181,1.384-0.188,2.756-1.038,3.862C202.251,81.247,201.02,81.956,199.636,82.137z"/>
		</g>
		<g>
			<path d="M70.585,225.93c-0.684,0-1.371-0.095-2.047-0.287c-1.915-0.544-3.503-1.8-4.472-3.538l1.697-0.947
				c0.716,1.285,1.89,2.214,3.306,2.616c1.414,0.401,2.903,0.229,4.187-0.488c2.652-1.479,3.607-4.84,2.129-7.491l1.697-0.947
				c2,3.589,0.709,8.136-2.879,10.136C73.078,225.61,71.838,225.93,70.585,225.93z"/>
		</g>
		<g>
			<path d="M243.385,180.551c-3.098-2.813-3.33-7.624-0.517-10.722c2.814-3.098,7.624-3.328,10.722-0.518l-1.331,1.467
				c-2.29-2.078-5.845-1.909-7.925,0.382c-2.079,2.29-1.908,5.846,0.382,7.926L243.385,180.551z"/>
		</g>
		<g>
			<path d="M80.762,19.726c-0.983,0-1.921-0.354-2.663-1.013c-0.803-0.713-1.28-1.695-1.344-2.768
				c-0.064-1.071,0.293-2.104,1.006-2.907c0.713-0.803,1.696-1.28,2.768-1.345l0.063,1.047c-0.792,0.047-1.519,0.4-2.045,0.994
				c-0.527,0.594-0.791,1.357-0.744,2.149c0.047,0.793,0.4,1.519,0.994,2.046c0.593,0.526,1.356,0.79,2.149,0.743l0.063,1.047
				C80.925,19.724,80.843,19.726,80.762,19.726z"/>
		</g>
		<g>
			<path d="M277.249,155.055l-0.829-1.137c0.859-0.627,1.423-1.551,1.587-2.602c0.164-1.052-0.091-2.104-0.718-2.965
				c-1.296-1.772-3.794-2.164-5.568-0.868l-0.829-1.137c2.4-1.752,5.78-1.224,7.533,1.176c0.849,1.163,1.194,2.588,0.972,4.011
				C279.175,152.955,278.412,154.206,277.249,155.055z"/>
		</g>
		<g>
			<path d="M161.768,182.972l-1.146-1.781c2.784-1.791,3.593-5.514,1.802-8.298c-1.792-2.785-5.513-3.595-8.297-1.802l-1.145-1.783
				c3.766-2.42,8.802-1.327,11.225,2.438C166.628,175.514,165.535,180.549,161.768,182.972z"/>
		</g>
		<g>
			<path d="M10.62,35.15c-1.377,0-2.725-0.685-3.511-1.935l0.914-0.574c0.435,0.691,1.114,1.172,1.911,1.353
				c0.795,0.182,1.617,0.041,2.309-0.394c1.428-0.898,1.859-2.792,0.96-4.221l0.914-0.574c1.216,1.933,0.633,4.493-1.299,5.709
				C12.135,34.945,11.373,35.15,10.62,35.15z"/>
		</g>
		<g>
			<path d="M266.858,58.425c-0.896-1.122-1.303-2.525-1.144-3.952c0.159-1.428,0.864-2.708,1.986-3.604
				c2.315-1.85,5.705-1.474,7.557,0.842l-1.096,0.875c-1.368-1.711-3.873-1.99-5.585-0.621c-0.829,0.663-1.35,1.608-1.468,2.664
				c-0.118,1.055,0.183,2.092,0.846,2.92L266.858,58.425z"/>
		</g>
		<g>
			<path d="M120.116,179.885c-3.608-2.979-4.122-8.337-1.145-11.944c1.442-1.748,3.479-2.83,5.735-3.047
				c2.259-0.214,4.462,0.46,6.21,1.901l-1.409,1.707c-1.292-1.066-2.92-1.567-4.589-1.405c-1.668,0.16-3.173,0.96-4.239,2.252
				c-2.201,2.667-1.821,6.628,0.847,8.829L120.116,179.885z"/>
		</g>
		<path d="M237.306,17.83L237.306,17.83c1.214,0,2.309,0.672,2.856,1.754c0.386,0.762,0.452,1.629,0.186,2.439
			c-0.266,0.813-0.832,1.471-1.594,1.857c-0.454,0.229-0.938,0.346-1.441,0.346c-1.214,0-2.308-0.672-2.856-1.754
			c-0.796-1.572-0.164-3.5,1.409-4.297C236.319,17.946,236.804,17.83,237.306,17.83 M237.306,16.404
			c-0.702,0-1.415,0.16-2.084,0.499c-2.279,1.154-3.19,3.937-2.037,6.214c0.814,1.608,2.44,2.535,4.128,2.535
			c0.702,0,1.415-0.16,2.085-0.5c2.278-1.152,3.19-3.935,2.036-6.213C240.621,17.331,238.994,16.404,237.306,16.404L237.306,16.404z
			"/>
		<path d="M54.933,107.621L54.933,107.621c0.09,0,0.181,0.005,0.273,0.014c0.683,0.072,1.296,0.406,1.729,0.94
			c0.432,0.533,0.63,1.203,0.558,1.885c-0.138,1.313-1.235,2.301-2.551,2.301c-0.09,0-0.182-0.005-0.273-0.014
			c-1.409-0.148-2.434-1.416-2.286-2.824C52.52,108.609,53.617,107.621,54.933,107.621 M54.933,106.475
			c-1.876,0-3.49,1.419-3.69,3.326c-0.215,2.041,1.266,3.869,3.306,4.084c0.132,0.015,0.264,0.021,0.393,0.021
			c1.878,0,3.49-1.419,3.691-3.326c0.215-2.041-1.265-3.869-3.306-4.084C55.194,106.481,55.063,106.475,54.933,106.475
			L54.933,106.475z"/>
		<path d="M258.123,88.144c1.188,0,2.249,0.798,2.58,1.939c0.413,1.424-0.409,2.919-1.833,3.331
			c-0.246,0.072-0.498,0.108-0.751,0.108c-1.187,0-2.248-0.798-2.58-1.939c-0.413-1.424,0.409-2.919,1.833-3.331
			C257.617,88.18,257.87,88.144,258.123,88.144 M258.122,86.944c-0.358,0-0.723,0.05-1.085,0.155
			c-2.063,0.599-3.248,2.756-2.65,4.817c0.494,1.7,2.046,2.805,3.732,2.805c0.359,0,0.724-0.05,1.086-0.155
			c2.062-0.599,3.248-2.756,2.65-4.817C261.361,88.05,259.808,86.944,258.122,86.944L258.122,86.944z"/>
		<path d="M123.142,15.027L123.142,15.027c0.575,0,1.134,0.123,1.664,0.363c0.979,0.445,1.725,1.244,2.103,2.252
			c0.377,1.007,0.34,2.101-0.105,3.078c-0.652,1.434-2.092,2.361-3.668,2.361c-0.574,0-1.134-0.122-1.663-0.363
			c-2.021-0.918-2.918-3.311-1.999-5.33C120.127,15.954,121.566,15.027,123.142,15.027 M123.142,13.232
			c-2.212,0-4.327,1.268-5.303,3.412c-1.331,2.927-0.038,6.378,2.89,7.709c0.782,0.355,1.6,0.523,2.406,0.523
			c2.212,0,4.328-1.268,5.303-3.412c1.33-2.926,0.037-6.379-2.889-7.709C124.768,13.4,123.948,13.232,123.142,13.232L123.142,13.232
			z"/>
		<path d="M200.413,136.832L200.413,136.832c0.169,0,0.34,0.014,0.508,0.043c1.606,0.278,2.687,1.811,2.409,3.418
			c-0.246,1.421-1.469,2.453-2.909,2.453c-0.169,0-0.34-0.016-0.508-0.044c-1.607-0.278-2.688-1.812-2.41-3.417
			C197.75,137.863,198.973,136.832,200.413,136.832 M200.413,135.513c-2.042,0-3.848,1.468-4.208,3.547
			c-0.402,2.327,1.157,4.539,3.484,4.942c0.247,0.042,0.492,0.063,0.733,0.063c2.041,0,3.848-1.467,4.208-3.547
			c0.402-2.326-1.158-4.539-3.484-4.941C200.9,135.533,200.655,135.513,200.413,135.513L200.413,135.513z"/>
		<path d="M52.387,143.14L52.387,143.14c0.785,0,1.527,0.257,2.147,0.742c0.732,0.574,1.197,1.399,1.31,2.324
			c0.112,0.925-0.143,1.837-0.717,2.569c-0.665,0.849-1.666,1.336-2.747,1.336c-0.785,0-1.527-0.258-2.147-0.743
			c-1.513-1.186-1.779-3.381-0.594-4.894C50.305,143.626,51.307,143.14,52.387,143.14 M52.387,141.584
			c-1.496,0-2.977,0.664-3.971,1.932c-1.717,2.191-1.333,5.359,0.858,7.076c0.922,0.724,2.018,1.074,3.106,1.074
			c1.496,0,2.976-0.663,3.971-1.932c1.717-2.19,1.333-5.359-0.858-7.076C54.57,141.936,53.475,141.584,52.387,141.584
			L52.387,141.584z"/>
		<path d="M19.679,261.301L19.679,261.301c0.768,0,1.473,0.35,1.937,0.959c0.393,0.517,0.561,1.155,0.473,1.799
			c-0.087,0.643-0.42,1.213-0.937,1.606c-0.426,0.324-0.934,0.496-1.468,0.496c-0.767,0-1.473-0.35-1.937-0.96
			c-0.393-0.517-0.561-1.155-0.474-1.799c0.087-0.643,0.42-1.213,0.937-1.605C18.638,261.472,19.145,261.301,19.679,261.301
			 M19.679,260.217c-0.741,0-1.489,0.233-2.124,0.717c-1.545,1.174-1.845,3.379-0.67,4.924c0.691,0.909,1.739,1.388,2.8,1.388
			c0.741,0,1.489-0.234,2.124-0.718c1.544-1.174,1.845-3.379,0.67-4.924C21.788,260.694,20.74,260.217,19.679,260.217
			L19.679,260.217z"/>
		<path d="M137.24,68.513L137.24,68.513c1.842,0,3.504,1.164,4.136,2.896c0.831,2.28-0.348,4.812-2.628,5.643
			c-0.487,0.178-0.994,0.268-1.506,0.268c-1.843,0-3.505-1.164-4.137-2.896c-0.403-1.105-0.351-2.301,0.145-3.367
			c0.497-1.064,1.378-1.873,2.483-2.276C136.22,68.603,136.727,68.513,137.24,68.513 M137.239,66.549
			c-0.724,0-1.46,0.125-2.179,0.387c-3.303,1.203-5.005,4.856-3.801,8.16c0.941,2.584,3.382,4.188,5.981,4.188
			c0.723,0,1.46-0.125,2.178-0.387c3.302-1.203,5.004-4.857,3.801-8.16C142.278,68.152,139.838,66.549,137.239,66.549
			L137.239,66.549z"/>
		<path d="M138.62,252.611L138.62,252.611c0.385,0,0.757,0.088,1.107,0.26c0.601,0.296,1.051,0.809,1.267,1.443
			c0.215,0.635,0.171,1.314-0.124,1.915c-0.426,0.865-1.29,1.402-2.254,1.402c-0.385,0-0.757-0.087-1.105-0.259
			c-1.241-0.612-1.754-2.12-1.143-3.36C136.792,253.148,137.656,252.611,138.62,252.611 M138.62,251.492
			c-1.338,0-2.626,0.744-3.257,2.025c-0.885,1.798-0.146,3.973,1.652,4.859c0.516,0.254,1.061,0.374,1.6,0.374
			c1.338,0,2.626-0.744,3.258-2.026c0.885-1.797,0.145-3.973-1.651-4.858C139.705,251.612,139.158,251.492,138.62,251.492
			L138.62,251.492z"/>
		<path d="M104.682,50.285l4.067,4.496l-6.038,0.556l-4.067-4.497L104.682,50.285 M105.289,48.729l-9.757,0.896l6.572,7.267
			l9.756-0.897L105.289,48.729L105.289,48.729z"/>
		<path d="M14.543,194.753l4.165,4.408l-1.028,5.977l-4.164-4.409L14.543,194.753 M13.577,191.555l-1.66,9.658l6.729,7.124
			l1.661-9.659L13.577,191.555L13.577,191.555z"/>
		<path d="M237.102,256.856l8.074,3.997l1.648,8.856l-8.075-3.996L237.102,256.856 M234.107,252.897l2.663,14.314l13.048,6.457
			l-2.663-14.311L234.107,252.897L234.107,252.897z"/>
		<path d="M55.586,47.202l4.409,1.554l1.403,4.459l-4.409-1.554L55.586,47.202 M53.796,45.35l2.267,7.207l7.125,2.51l-2.267-7.205
			L53.796,45.35L53.796,45.35z"/>
		<path d="M140.671,199.173l0.633,5.332l-3.885,3.706l-0.634-5.332L140.671,199.173 M141.673,196.389l-6.279,5.989l1.024,8.616
			l6.278-5.988L141.673,196.389L141.673,196.389z"/>
		<path d="M85.235,143.593l4.257,2.358l0.668,4.82l-4.257-2.357L85.235,143.593 M83.718,141.382l1.079,7.79l6.88,3.811l-1.079-7.789
			L83.718,141.382L83.718,141.382z"/>
		<path d="M102.926,266.624l-1.991,4.077l-4.457,0.854l1.991-4.077L102.926,266.624 M104.912,265.105l-7.202,1.38l-3.217,6.589
			l7.201-1.38L104.912,265.105L104.912,265.105z"/>
		<path d="M150.689,115.416l-5.024,7.547l-9.053,0.508l5.026-7.547L150.689,115.416 M155.024,112.936l-14.627,0.821l-8.122,12.194
			l14.629-0.82L155.024,112.936L155.024,112.936z"/>
		<path d="M35.183,12.89l5.935,6.171l-1.375,8.451l-5.936-6.171L35.183,12.89 M33.778,8.386l-2.223,13.657l9.592,9.973l2.222-13.656
			L33.778,8.386L33.778,8.386z"/>
		<g>
			<path d="M17.911,71.924c-0.146,0-0.293-0.031-0.433-0.097c-0.513-0.239-0.734-0.85-0.495-1.362
				c0.558-1.194,1.535-2.06,2.752-2.438c1.217-0.377,2.511-0.217,3.644,0.448c0.63,0.37,1.34,0.46,1.998,0.256
				c0.659-0.205,1.192-0.683,1.502-1.346c0.558-1.193,1.536-2.059,2.753-2.436c1.215-0.378,2.51-0.219,3.643,0.448
				c0.488,0.287,0.651,0.915,0.364,1.403c-0.287,0.489-0.916,0.65-1.403,0.364c-0.63-0.371-1.339-0.463-1.996-0.258
				c-0.659,0.205-1.194,0.684-1.504,1.348c-0.557,1.191-1.534,2.056-2.75,2.434c-1.215,0.379-2.51,0.221-3.645-0.445
				c-0.632-0.37-1.34-0.461-1.997-0.259c-0.659,0.205-1.192,0.684-1.503,1.348C18.667,71.705,18.297,71.924,17.911,71.924z"/>
		</g>
		<g>
			<path d="M219.126,115.87c-0.009,0-0.017,0-0.026-0.001c-0.369-0.014-0.657-0.324-0.643-0.693
				c0.019-0.475-0.148-0.911-0.469-1.225c-0.321-0.316-0.757-0.476-1.24-0.447c-0.856,0.042-1.655-0.245-2.249-0.827
				c-0.593-0.582-0.903-1.375-0.872-2.232c0.018-0.477-0.148-0.912-0.469-1.227c-0.322-0.316-0.763-0.471-1.24-0.447
				c-0.367-0.004-0.684-0.262-0.705-0.63c-0.021-0.369,0.261-0.685,0.63-0.706c0.86-0.04,1.658,0.245,2.252,0.828
				c0.592,0.582,0.901,1.374,0.869,2.231c-0.018,0.476,0.15,0.912,0.472,1.228c0.321,0.314,0.758,0.469,1.237,0.446
				c0.868-0.038,1.659,0.245,2.253,0.829c0.592,0.582,0.901,1.374,0.868,2.23C219.78,115.587,219.483,115.87,219.126,115.87z"/>
		</g>
		<g>
			<path d="M204.691,243.964c-0.331,0-0.602-0.267-0.606-0.599c-0.004-0.335,0.264-0.61,0.599-0.614
				c0.432-0.005,0.818-0.176,1.088-0.48c0.271-0.306,0.395-0.712,0.348-1.143c-0.083-0.774,0.146-1.511,0.646-2.075
				c0.499-0.564,1.203-0.881,1.982-0.892c0.433-0.005,0.819-0.176,1.09-0.482c0.27-0.305,0.394-0.71,0.348-1.141
				c-0.036-0.333,0.204-0.632,0.537-0.668c0.333-0.044,0.632,0.204,0.668,0.537c0.084,0.774-0.145,1.512-0.646,2.076
				c-0.499,0.564-1.203,0.88-1.981,0.89c-0.432,0.006-0.819,0.178-1.09,0.483c-0.27,0.306-0.394,0.71-0.348,1.141
				c0.083,0.774-0.146,1.513-0.647,2.076c-0.499,0.564-1.203,0.88-1.98,0.89C204.696,243.964,204.693,243.964,204.691,243.964z"/>
		</g>
		<g>
			<path d="M48.416,192.182c-0.21,0-0.422-0.069-0.599-0.212c-0.954-0.77-1.518-1.848-1.587-3.032
				c-0.069-1.183,0.364-2.316,1.219-3.191c0.474-0.486,0.715-1.108,0.677-1.749c-0.038-0.642-0.351-1.23-0.88-1.658
				c-0.954-0.771-1.518-1.848-1.587-3.033c-0.069-1.183,0.364-2.316,1.22-3.191c0.37-0.378,0.974-0.383,1.349-0.015
				c0.377,0.368,0.383,0.972,0.015,1.349c-0.476,0.486-0.716,1.106-0.679,1.746c0.038,0.642,0.351,1.231,0.882,1.66
				c0.953,0.769,1.516,1.846,1.585,3.029c0.07,1.184-0.361,2.318-1.216,3.195c-0.476,0.487-0.717,1.106-0.68,1.747
				c0.038,0.641,0.351,1.23,0.882,1.659c0.41,0.331,0.474,0.932,0.143,1.342C48.97,192.061,48.694,192.182,48.416,192.182z"/>
		</g>
		<g>
			<path d="M58.755,259.748c-1.137,0-2.214-0.375-3.094-1.09c-1.083-0.879-1.724-2.155-1.805-3.594
				c-0.046-0.798-0.395-1.5-0.981-1.976c-0.587-0.477-1.346-0.674-2.138-0.552c-1.428,0.213-2.812-0.148-3.896-1.03
				c-1.083-0.879-1.723-2.155-1.803-3.593c-0.034-0.619,0.439-1.149,1.059-1.184c0.624-0.029,1.149,0.44,1.184,1.059
				c0.044,0.799,0.391,1.5,0.977,1.976c0.588,0.477,1.35,0.674,2.143,0.552c1.425-0.213,2.806,0.149,3.889,1.028
				c1.084,0.879,1.726,2.154,1.809,3.593c0.045,0.801,0.392,1.502,0.978,1.978c0.587,0.477,1.346,0.675,2.141,0.552
				c0.612-0.096,1.185,0.329,1.278,0.941c0.093,0.613-0.328,1.185-0.941,1.279C59.286,259.728,59.019,259.748,58.755,259.748z"/>
		</g>
		<g>
			<path d="M12.091,106.635c-0.04,0-0.08-0.001-0.119-0.002c-0.42-0.014-0.749-0.365-0.735-0.784c0.013-0.42,0.361-0.74,0.784-0.735
				c0.551,0.025,1.036-0.174,1.391-0.541c0.356-0.367,0.534-0.867,0.5-1.409c-0.06-0.976,0.269-1.886,0.927-2.563
				c0.657-0.678,1.561-1.025,2.529-1.004c0.546,0.014,1.036-0.174,1.392-0.541c0.356-0.367,0.534-0.868,0.5-1.411
				c-0.026-0.419,0.292-0.779,0.711-0.806c0.421-0.03,0.779,0.293,0.806,0.712c0.061,0.975-0.268,1.886-0.927,2.563
				c-0.657,0.677-1.563,1.03-2.53,1.002c-0.539-0.027-1.035,0.175-1.39,0.542c-0.356,0.368-0.534,0.869-0.501,1.411
				c0.062,0.974-0.267,1.884-0.925,2.563C13.872,106.28,13.019,106.635,12.091,106.635z"/>
		</g>
		<g>
			<path d="M104.37,113.764c-0.596,0-1.179-0.149-1.708-0.443c-0.882-0.49-1.5-1.318-1.739-2.333
				c-0.134-0.563-0.471-1.021-0.95-1.286c-0.478-0.265-1.044-0.31-1.594-0.123c-0.991,0.335-2.022,0.249-2.906-0.243
				c-0.883-0.49-1.501-1.319-1.739-2.334c-0.103-0.438,0.168-0.875,0.605-0.978c0.44-0.1,0.875,0.169,0.977,0.604
				c0.133,0.564,0.469,1.021,0.947,1.286c0.478,0.265,1.044,0.311,1.596,0.123c0.987-0.334,2.019-0.247,2.903,0.242
				c0.884,0.49,1.503,1.319,1.743,2.334c0.133,0.564,0.469,1.021,0.946,1.286c0.479,0.266,1.046,0.311,1.597,0.123
				c0.426-0.141,0.887,0.087,1.03,0.511c0.144,0.425-0.085,0.887-0.51,1.03C105.17,113.697,104.768,113.764,104.37,113.764z"/>
		</g>
		<g>
			<path d="M19.299,149.88c-0.254,0-0.508-0.098-0.7-0.294c-0.881-0.9-1.328-2.065-1.258-3.282c0.07-1.215,0.647-2.319,1.624-3.11
				c0.542-0.439,0.861-1.045,0.899-1.703s-0.211-1.296-0.7-1.795c-0.882-0.9-1.329-2.066-1.258-3.283
				c0.071-1.216,0.647-2.32,1.625-3.11c0.421-0.34,1.037-0.274,1.378,0.146c0.34,0.421,0.275,1.037-0.146,1.378
				c-0.543,0.439-0.862,1.043-0.9,1.7c-0.038,0.659,0.211,1.298,0.702,1.799c0.879,0.897,1.326,2.061,1.256,3.277
				c-0.069,1.216-0.646,2.322-1.622,3.114c-0.543,0.44-0.863,1.044-0.901,1.701c-0.038,0.658,0.211,1.297,0.702,1.798
				c0.378,0.387,0.372,1.007-0.015,1.386C19.794,149.787,19.547,149.88,19.299,149.88z"/>
		</g>
		<g>
			<path d="M162.173,51.915c-0.496,0-0.998-0.09-1.489-0.271c-0.487-0.18-0.737-0.721-0.557-1.208
				c0.18-0.488,0.721-0.738,1.208-0.558c0.628,0.231,1.284,0.198,1.845-0.093c0.563-0.293,0.968-0.813,1.14-1.464
				c0.309-1.167,1.05-2.107,2.087-2.647c1.039-0.541,2.233-0.609,3.367-0.193c0.63,0.232,1.286,0.2,1.847-0.091
				c0.562-0.293,0.966-0.813,1.139-1.463c0.133-0.502,0.65-0.802,1.15-0.67c0.503,0.133,0.802,0.648,0.669,1.15
				c-0.309,1.17-1.051,2.112-2.09,2.652c-1.038,0.537-2.232,0.606-3.365,0.188c-0.63-0.23-1.287-0.196-1.848,0.096
				c-0.562,0.293-0.966,0.812-1.138,1.461c-0.31,1.17-1.052,2.111-2.091,2.651C163.461,51.762,162.822,51.915,162.173,51.915z"/>
		</g>
		<g>
			<path d="M213.876,162.551c-0.135,0-0.27-0.048-0.376-0.146l-3.63-3.329c-0.227-0.208-0.242-0.56-0.034-0.786
				c0.208-0.228,0.56-0.243,0.787-0.034l3.63,3.329c0.227,0.208,0.242,0.56,0.034,0.786
				C214.177,162.49,214.027,162.551,213.876,162.551z"/>
		</g>
		<g>
			<path d="M95.099,189.1c-0.162,0-0.324-0.067-0.44-0.198l-3.438-3.891c-0.214-0.243-0.191-0.614,0.051-0.828
				c0.243-0.214,0.613-0.191,0.829,0.051l3.438,3.891c0.214,0.243,0.191,0.614-0.051,0.828
				C95.376,189.052,95.237,189.1,95.099,189.1z"/>
		</g>
		<g>
			<path d="M70.937,80.877c-0.318,0-0.606-0.219-0.681-0.542c-0.087-0.376,0.147-0.751,0.524-0.838l6.024-1.393
				c0.371-0.092,0.751,0.146,0.838,0.523c0.087,0.376-0.147,0.751-0.524,0.838l-6.024,1.393
				C71.041,80.871,70.989,80.877,70.937,80.877z"/>
		</g>
		<g>
			<path d="M196.02,27.772c-0.3,0-0.571-0.204-0.645-0.508c-0.086-0.356,0.134-0.715,0.49-0.8l5.705-1.371
				c0.355-0.088,0.714,0.134,0.8,0.489c0.085,0.356-0.134,0.715-0.49,0.8l-5.705,1.371C196.124,27.767,196.071,27.772,196.02,27.772
				z"/>
		</g>
		<g>
			<path d="M271.837,250.225c-0.275,0-0.524-0.188-0.591-0.467l-1.249-5.234c-0.078-0.327,0.124-0.655,0.451-0.733
				c0.323-0.077,0.655,0.123,0.733,0.45l1.249,5.234c0.078,0.327-0.124,0.655-0.451,0.733
				C271.932,250.22,271.884,250.225,271.837,250.225z"/>
		</g>
		<g>
			<path d="M173.539,256.147c-0.226,0-0.441-0.13-0.539-0.35l-2.114-4.76c-0.132-0.298,0.002-0.645,0.299-0.777
				c0.297-0.132,0.645,0.002,0.777,0.299l2.114,4.76c0.132,0.298-0.002,0.645-0.299,0.777
				C173.7,256.131,173.619,256.147,173.539,256.147z"/>
		</g>
		<g>
			<path d="M171.22,218.971c-0.518,0-0.951-0.403-0.982-0.927c-0.032-0.543,0.382-1.009,0.925-1.041l8.694-0.51
				c0.548-0.024,1.009,0.383,1.04,0.926c0.032,0.543-0.382,1.009-0.925,1.041l-8.694,0.51
				C171.259,218.971,171.239,218.971,171.22,218.971z"/>
		</g>
		<g>
			<path d="M114.279,230.829c-0.226,0-0.434-0.148-0.502-0.375l-1.307-4.436c-0.082-0.276,0.077-0.567,0.354-0.648
				c0.274-0.084,0.567,0.077,0.649,0.354l1.307,4.436c0.082,0.276-0.077,0.567-0.354,0.648
				C114.377,230.822,114.328,230.829,114.279,230.829z"/>
		</g>
		<g>
			<path d="M276.98,199.455c-0.034,0-0.069-0.002-0.103-0.007l-7.578-0.908c-0.473-0.057-0.811-0.486-0.754-0.959
				c0.057-0.474,0.492-0.815,0.96-0.754l7.578,0.908c0.473,0.057,0.811,0.486,0.754,0.959
				C277.784,199.133,277.411,199.455,276.98,199.455z"/>
		</g>
		<g>
			<polygon points="239.521,140.367 237.934,138.789 245.95,130.725 254.013,138.743 252.434,140.331 245.959,133.893 			"/>
		</g>
		<g>
			<polygon points="204.816,203.369 203.376,202.547 206.733,196.679 200.866,193.323 201.689,191.884 208.996,196.063 			"/>
		</g>
		<g>
			<polygon points="158.115,281.577 153.762,275.491 154.96,274.634 158.456,279.521 163.342,276.023 164.2,277.223 			"/>
		</g>
		<g>
			<polygon points="232.651,60.072 224.66,58.563 226.169,50.572 227.744,50.869 226.531,57.286 232.948,58.498 			"/>
		</g>
		<g>
			<polygon points="166.204,18.296 158.398,11.753 159.687,10.216 165.955,15.47 171.209,9.201 172.746,10.49 			"/>
		</g>
		<g>
			<polygon points="172.726,101.169 171.729,95.443 166.003,96.442 165.758,95.038 172.888,93.795 174.13,100.925 			"/>
		</g>
		<g>
			<polygon points="273.313,21.684 267.067,16.732 268.043,15.502 273.058,19.479 277.034,14.462 278.264,15.436 			"/>
		</g>
		<g>
			<polygon points="205.621,277.577 202.576,271.867 196.866,274.912 196.119,273.512 203.23,269.721 207.021,276.831 			"/>
		</g>
		<g>
			<polygon points="240.996,214.917 233.175,207.163 234.702,205.622 240.982,211.849 247.208,205.567 248.749,207.095 			"/>
		</g>
	</g>
	<g>
		<rect x="100.099" y="132.801" width="87.802" height="22.399"/>
		<g>
			<g>
				<path style="fill:#FFFFFF;" d="M108.235,142.336v-2.414l-0.94,1.798h-0.385l-0.941-1.798v2.414h-0.709v-3.648h0.76l1.079,2.076
					l1.089-2.076h0.755v3.648H108.235z"/>
				<path style="fill:#FFFFFF;" d="M113.266,141.715v0.621h-2.533v-3.648h2.487v0.622h-1.778v0.879h1.537v0.575h-1.537v0.951
					H113.266z"/>
				<path style="fill:#FFFFFF;" d="M117.839,142.336v-2.414l-0.94,1.798h-0.385l-0.94-1.798v2.414h-0.709v-3.648h0.76l1.079,2.076
					l1.089-2.076h0.755v3.648H117.839z"/>
				<path style="fill:#FFFFFF;" d="M120.336,142.336v-3.648h1.546c0.168,0,0.323,0.035,0.465,0.105
					c0.142,0.07,0.265,0.163,0.367,0.277c0.103,0.115,0.184,0.246,0.242,0.391c0.058,0.146,0.087,0.293,0.087,0.439
					c0,0.154-0.027,0.305-0.083,0.45c-0.055,0.146-0.132,0.275-0.231,0.388c-0.1,0.113-0.219,0.204-0.36,0.272
					c-0.141,0.068-0.294,0.103-0.462,0.103h-0.863v1.223H120.336z M121.045,140.492h0.822c0.13,0,0.239-0.054,0.326-0.16
					c0.087-0.105,0.131-0.25,0.131-0.432c0-0.092-0.014-0.176-0.041-0.249c-0.027-0.073-0.063-0.136-0.108-0.188
					c-0.044-0.052-0.097-0.09-0.157-0.116c-0.06-0.025-0.121-0.038-0.182-0.038h-0.791V140.492z"/>
				<path style="fill:#FFFFFF;" d="M127.623,138.688v3.648h-0.704v-1.557h-1.655v1.557h-0.709v-3.648h0.709v1.475h1.655v-1.475
					H127.623z"/>
				<path style="fill:#FFFFFF;" d="M129.411,142.336v-3.643h0.709v3.643H129.411z"/>
				<path style="fill:#FFFFFF;" d="M134.087,139.645c-0.024-0.024-0.068-0.057-0.131-0.098c-0.064-0.042-0.141-0.082-0.232-0.121
					c-0.091-0.039-0.189-0.073-0.295-0.101c-0.106-0.027-0.214-0.041-0.324-0.041c-0.195,0-0.341,0.036-0.437,0.108
					c-0.096,0.071-0.144,0.172-0.144,0.303c0,0.075,0.018,0.138,0.054,0.188s0.088,0.094,0.157,0.131
					c0.068,0.038,0.155,0.072,0.26,0.104c0.104,0.03,0.225,0.063,0.362,0.098c0.178,0.047,0.34,0.099,0.486,0.153
					c0.145,0.056,0.269,0.124,0.37,0.206c0.101,0.082,0.179,0.18,0.234,0.295c0.055,0.115,0.082,0.256,0.082,0.424
					c0,0.195-0.037,0.363-0.11,0.502c-0.074,0.139-0.172,0.25-0.296,0.336c-0.124,0.086-0.268,0.148-0.432,0.188
					c-0.165,0.039-0.336,0.059-0.514,0.059c-0.274,0-0.544-0.041-0.812-0.123c-0.267-0.082-0.507-0.198-0.719-0.35l0.314-0.611
					c0.031,0.031,0.086,0.071,0.167,0.121c0.081,0.05,0.175,0.1,0.285,0.148c0.11,0.051,0.231,0.092,0.365,0.127
					c0.134,0.033,0.271,0.051,0.411,0.051c0.391,0,0.586-0.125,0.586-0.375c0-0.082-0.022-0.15-0.067-0.205
					c-0.044-0.055-0.108-0.104-0.19-0.145c-0.083-0.041-0.182-0.078-0.298-0.113c-0.116-0.033-0.247-0.07-0.39-0.107
					c-0.175-0.048-0.327-0.1-0.455-0.156c-0.128-0.057-0.235-0.123-0.321-0.198c-0.086-0.075-0.15-0.165-0.192-0.268
					c-0.043-0.103-0.064-0.224-0.064-0.364c0-0.186,0.034-0.35,0.103-0.494c0.068-0.144,0.164-0.264,0.285-0.359
					c0.122-0.096,0.263-0.168,0.424-0.219c0.161-0.049,0.334-0.074,0.519-0.074c0.257,0,0.493,0.041,0.709,0.121
					c0.216,0.08,0.404,0.176,0.565,0.285L134.087,139.645z"/>
				<path style="fill:#FFFFFF;" d="M138.537,138.688l0.987,2.76l0.976-2.76h0.745l-1.423,3.648h-0.596l-1.434-3.648H138.537z"/>
				<path style="fill:#FFFFFF;" d="M145.191,141.715v0.621h-2.533v-3.648h2.487v0.622h-1.778v0.879h1.537v0.575h-1.537v0.951
					H145.191z"/>
				<path style="fill:#FFFFFF;" d="M146.574,140.486c0-0.223,0.039-0.442,0.118-0.66c0.079-0.217,0.192-0.412,0.342-0.583
					c0.149-0.171,0.331-0.31,0.547-0.417c0.216-0.105,0.463-0.158,0.74-0.158c0.325,0,0.607,0.073,0.845,0.221
					c0.238,0.146,0.414,0.339,0.527,0.575l-0.545,0.375c-0.041-0.103-0.094-0.188-0.159-0.259c-0.065-0.07-0.136-0.127-0.213-0.168
					c-0.077-0.041-0.157-0.07-0.239-0.09c-0.083-0.019-0.161-0.027-0.236-0.027c-0.168,0-0.315,0.035-0.442,0.107
					c-0.127,0.072-0.232,0.165-0.316,0.279c-0.084,0.115-0.147,0.246-0.19,0.391c-0.043,0.146-0.064,0.291-0.064,0.436
					c0,0.16,0.024,0.315,0.074,0.465c0.05,0.148,0.12,0.279,0.211,0.393c0.09,0.113,0.199,0.203,0.326,0.272
					c0.126,0.068,0.266,0.103,0.416,0.103c0.079,0,0.16-0.01,0.242-0.031c0.082-0.019,0.162-0.053,0.239-0.098
					c0.077-0.044,0.148-0.102,0.213-0.172c0.065-0.07,0.118-0.154,0.159-0.254l0.58,0.334c-0.055,0.137-0.134,0.258-0.239,0.362
					c-0.104,0.104-0.224,0.192-0.357,0.265c-0.134,0.072-0.274,0.127-0.421,0.164c-0.147,0.038-0.293,0.057-0.437,0.057
					c-0.253,0-0.485-0.055-0.696-0.164c-0.21-0.109-0.392-0.253-0.544-0.43c-0.153-0.176-0.271-0.377-0.354-0.602
					C146.616,140.948,146.574,140.72,146.574,140.486z"/>
				<path style="fill:#FFFFFF;" d="M153.968,139.309h-1.161v3.026h-0.709v-3.026h-1.167v-0.622h3.037V139.309z"/>
				<path style="fill:#FFFFFF;" d="M156.851,142.362c-0.257,0-0.492-0.052-0.704-0.157c-0.213-0.104-0.395-0.242-0.547-0.416
					c-0.153-0.173-0.27-0.371-0.352-0.594c-0.083-0.223-0.124-0.45-0.124-0.684c0-0.242,0.044-0.476,0.131-0.698
					c0.087-0.223,0.209-0.42,0.365-0.591c0.156-0.172,0.34-0.308,0.552-0.408c0.212-0.102,0.444-0.152,0.694-0.152
					c0.257,0,0.492,0.055,0.704,0.162c0.212,0.107,0.394,0.249,0.544,0.424c0.151,0.175,0.267,0.373,0.35,0.596
					c0.082,0.223,0.123,0.449,0.123,0.679c0,0.243-0.044,0.476-0.131,0.696s-0.208,0.416-0.362,0.586
					c-0.154,0.17-0.337,0.305-0.55,0.406C157.332,142.311,157.101,142.362,156.851,142.362z M155.838,140.512
					c0,0.158,0.023,0.311,0.069,0.458c0.046,0.147,0.113,0.277,0.201,0.39c0.087,0.113,0.194,0.205,0.321,0.273
					c0.127,0.068,0.271,0.103,0.432,0.103c0.165,0,0.309-0.035,0.435-0.105c0.125-0.07,0.23-0.163,0.316-0.28
					c0.085-0.116,0.15-0.247,0.195-0.393c0.045-0.146,0.067-0.294,0.067-0.445c0-0.157-0.024-0.31-0.072-0.457
					c-0.048-0.146-0.116-0.277-0.203-0.391c-0.087-0.113-0.194-0.203-0.319-0.27s-0.267-0.1-0.424-0.1
					c-0.165,0-0.309,0.035-0.434,0.105c-0.126,0.07-0.232,0.162-0.319,0.277c-0.087,0.114-0.153,0.244-0.198,0.391
					C155.861,140.213,155.838,140.361,155.838,140.512z"/>
				<path style="fill:#FFFFFF;" d="M160.165,142.336v-3.648h1.613c0.168,0,0.323,0.035,0.465,0.105
					c0.142,0.07,0.265,0.163,0.367,0.277c0.103,0.115,0.183,0.246,0.242,0.391c0.058,0.146,0.087,0.293,0.087,0.439
					c0,0.236-0.059,0.451-0.177,0.645c-0.118,0.194-0.279,0.334-0.48,0.42l0.858,1.371h-0.802l-0.766-1.223h-0.699v1.223H160.165z
					 M160.874,140.492h0.889c0.065,0,0.126-0.016,0.182-0.047c0.057-0.031,0.105-0.072,0.146-0.126
					c0.041-0.053,0.074-0.115,0.098-0.188c0.024-0.071,0.036-0.149,0.036-0.231c0-0.086-0.014-0.164-0.041-0.236
					c-0.028-0.072-0.064-0.135-0.111-0.188c-0.046-0.053-0.099-0.094-0.159-0.123c-0.06-0.029-0.121-0.044-0.182-0.044h-0.858
					V140.492z"/>
			</g>
			<g>
				<path style="fill:#FFFFFF;" d="M108.199,147.65c0,0.154-0.031,0.29-0.092,0.406c-0.062,0.117-0.146,0.215-0.254,0.293
					c-0.108,0.079-0.233,0.139-0.375,0.18c-0.142,0.041-0.294,0.063-0.455,0.063h-1.762v-3.648h1.953
					c0.126,0,0.241,0.027,0.344,0.082c0.103,0.055,0.19,0.125,0.262,0.213c0.072,0.088,0.127,0.188,0.167,0.299
					c0.039,0.111,0.059,0.223,0.059,0.336c0,0.178-0.045,0.346-0.134,0.501c-0.089,0.155-0.219,0.271-0.391,0.347
					c0.209,0.063,0.374,0.172,0.496,0.332C108.138,147.211,108.199,147.411,108.199,147.65z M105.969,145.549v0.92h0.945
					c0.12,0,0.222-0.041,0.306-0.123c0.084-0.082,0.126-0.195,0.126-0.339c0-0.141-0.038-0.252-0.115-0.335
					c-0.077-0.082-0.172-0.123-0.285-0.123H105.969z M107.485,147.518c0-0.065-0.011-0.128-0.034-0.188
					c-0.022-0.061-0.052-0.112-0.09-0.157c-0.038-0.044-0.082-0.079-0.134-0.105c-0.051-0.026-0.108-0.039-0.169-0.039h-1.089v0.961
					h1.053c0.065,0,0.126-0.012,0.183-0.036c0.057-0.025,0.105-0.058,0.146-0.101c0.041-0.043,0.074-0.093,0.098-0.151
					C107.473,147.645,107.485,147.582,107.485,147.518z"/>
				<path style="fill:#FFFFFF;" d="M109.34,148.592l1.439-3.648h0.575l1.434,3.648h-0.751l-0.334-0.91h-1.279l-0.334,0.91H109.34z
					 M111.066,145.709l-0.524,1.475h1.033L111.066,145.709z"/>
				<path style="fill:#FFFFFF;" d="M113.99,146.741c0-0.223,0.039-0.442,0.118-0.66c0.079-0.218,0.192-0.411,0.342-0.583
					c0.149-0.172,0.331-0.311,0.547-0.416c0.216-0.107,0.463-0.16,0.74-0.16c0.325,0,0.607,0.074,0.845,0.222
					c0.238,0.148,0.414,0.339,0.527,0.575l-0.545,0.375c-0.041-0.103-0.094-0.189-0.159-0.26c-0.065-0.07-0.136-0.125-0.213-0.166
					c-0.077-0.041-0.157-0.072-0.239-0.09c-0.083-0.02-0.161-0.029-0.236-0.029c-0.168,0-0.315,0.037-0.442,0.108
					c-0.127,0.071-0.232,0.165-0.316,0.28c-0.084,0.115-0.147,0.244-0.19,0.391c-0.043,0.146-0.064,0.29-0.064,0.434
					c0,0.161,0.024,0.316,0.074,0.465c0.05,0.149,0.12,0.28,0.211,0.394c0.09,0.113,0.199,0.204,0.326,0.272
					c0.126,0.068,0.266,0.103,0.416,0.103c0.079,0,0.16-0.011,0.242-0.03c0.082-0.021,0.162-0.054,0.239-0.098
					c0.077-0.045,0.148-0.102,0.213-0.172c0.065-0.07,0.118-0.156,0.159-0.255l0.58,0.334c-0.055,0.137-0.134,0.258-0.239,0.362
					c-0.104,0.104-0.224,0.192-0.357,0.265c-0.134,0.071-0.274,0.126-0.421,0.164c-0.147,0.038-0.293,0.057-0.437,0.057
					c-0.253,0-0.485-0.055-0.696-0.165c-0.21-0.109-0.392-0.252-0.544-0.428c-0.153-0.178-0.271-0.377-0.354-0.602
					C114.032,147.203,113.99,146.975,113.99,146.741z"/>
				<path style="fill:#FFFFFF;" d="M118.677,148.592v-3.644h0.709v1.778l1.578-1.783h0.735l-1.398,1.618l1.485,2.03h-0.75
					l-1.161-1.629l-0.488,0.529v1.1H118.677z"/>
				<path style="fill:#FFFFFF;" d="M125.578,148.18c-0.281,0.291-0.604,0.438-0.971,0.438c-0.233,0-0.452-0.052-0.658-0.154
					c-0.205-0.104-0.385-0.24-0.537-0.414c-0.152-0.172-0.272-0.372-0.359-0.598c-0.087-0.227-0.131-0.461-0.131-0.705
					c0-0.25,0.044-0.485,0.131-0.706c0.087-0.222,0.209-0.415,0.365-0.581c0.156-0.166,0.339-0.298,0.55-0.395
					c0.21-0.098,0.439-0.146,0.686-0.146c0.332,0,0.617,0.072,0.853,0.216c0.236,0.145,0.415,0.338,0.534,0.581l-0.529,0.39
					c-0.089-0.181-0.211-0.319-0.367-0.416c-0.156-0.096-0.328-0.144-0.517-0.144c-0.151,0-0.287,0.032-0.408,0.098
					c-0.122,0.065-0.225,0.154-0.311,0.268c-0.086,0.112-0.152,0.243-0.201,0.39c-0.048,0.148-0.072,0.304-0.072,0.469
					c0,0.171,0.026,0.331,0.077,0.48c0.051,0.148,0.123,0.277,0.216,0.388c0.092,0.109,0.201,0.196,0.326,0.259
					c0.125,0.064,0.263,0.096,0.414,0.096c0.336,0,0.639-0.166,0.91-0.498v-0.258h-0.735v-0.518h1.321v1.876h-0.586V148.18z"/>
				<path style="fill:#FFFFFF;" d="M127.803,148.592v-3.648h1.613c0.168,0,0.323,0.035,0.465,0.105
					c0.142,0.07,0.265,0.162,0.367,0.277c0.103,0.114,0.183,0.244,0.242,0.391c0.058,0.145,0.087,0.291,0.087,0.439
					c0,0.236-0.059,0.451-0.177,0.645c-0.118,0.193-0.279,0.333-0.48,0.418l0.858,1.373h-0.802l-0.766-1.224h-0.699v1.224H127.803z
					 M128.512,146.746h0.889c0.065,0,0.126-0.016,0.182-0.046c0.057-0.03,0.106-0.073,0.147-0.126
					c0.041-0.053,0.074-0.115,0.098-0.188c0.024-0.072,0.036-0.148,0.036-0.23c0-0.086-0.014-0.165-0.041-0.236
					c-0.028-0.072-0.064-0.135-0.111-0.189c-0.046-0.053-0.099-0.094-0.159-0.123c-0.06-0.029-0.121-0.044-0.182-0.044h-0.858
					V146.746z"/>
				<path style="fill:#FFFFFF;" d="M133.768,148.617c-0.257,0-0.492-0.053-0.704-0.156c-0.213-0.106-0.395-0.244-0.547-0.417
					c-0.153-0.173-0.27-0.37-0.352-0.593c-0.082-0.223-0.123-0.451-0.123-0.684c0-0.244,0.044-0.477,0.131-0.699
					c0.087-0.223,0.209-0.42,0.365-0.591c0.156-0.171,0.34-0.308,0.552-0.409c0.212-0.101,0.444-0.151,0.694-0.151
					c0.257,0,0.492,0.054,0.704,0.162c0.212,0.108,0.394,0.249,0.544,0.424c0.151,0.175,0.267,0.374,0.35,0.597
					c0.082,0.223,0.123,0.448,0.123,0.678c0,0.243-0.044,0.476-0.131,0.696c-0.087,0.222-0.208,0.416-0.362,0.586
					c-0.154,0.169-0.337,0.305-0.55,0.405C134.249,148.566,134.018,148.617,133.768,148.617z M132.756,146.768
					c0,0.157,0.023,0.31,0.069,0.457c0.046,0.146,0.113,0.277,0.201,0.391c0.087,0.113,0.194,0.203,0.321,0.271
					c0.127,0.069,0.271,0.104,0.432,0.104c0.165,0,0.309-0.035,0.435-0.105c0.125-0.07,0.23-0.164,0.316-0.28
					c0.086-0.116,0.15-0.247,0.195-0.394c0.044-0.145,0.067-0.293,0.067-0.443c0-0.158-0.024-0.311-0.072-0.458
					c-0.048-0.147-0.116-0.277-0.203-0.39c-0.087-0.113-0.194-0.203-0.319-0.271s-0.267-0.101-0.424-0.101
					c-0.165,0-0.309,0.035-0.434,0.105c-0.126,0.07-0.232,0.163-0.319,0.277c-0.087,0.115-0.153,0.246-0.198,0.391
					C132.778,146.469,132.756,146.616,132.756,146.768z"/>
				<path style="fill:#FFFFFF;" d="M138.619,147.99c0.168,0,0.309-0.034,0.424-0.104c0.115-0.068,0.207-0.156,0.277-0.267
					c0.07-0.109,0.12-0.235,0.149-0.378c0.029-0.143,0.044-0.288,0.044-0.439v-1.859h0.704v1.859c0,0.25-0.03,0.485-0.09,0.704
					c-0.06,0.22-0.154,0.411-0.283,0.575c-0.128,0.165-0.293,0.295-0.496,0.391c-0.202,0.096-0.444,0.145-0.725,0.145
					c-0.291,0-0.539-0.051-0.743-0.152c-0.204-0.101-0.369-0.234-0.496-0.4c-0.127-0.166-0.219-0.359-0.275-0.578
					c-0.057-0.219-0.085-0.447-0.085-0.684v-1.859h0.709v1.859c0,0.154,0.015,0.303,0.044,0.445
					c0.029,0.142,0.079,0.268,0.149,0.377c0.07,0.109,0.162,0.198,0.275,0.265C138.316,147.957,138.455,147.99,138.619,147.99z"/>
				<path style="fill:#FFFFFF;" d="M142.663,146.254v2.338h-0.709v-3.648h0.55l1.901,2.395v-2.39h0.709v3.644h-0.576
					L142.663,146.254z"/>
				<path style="fill:#FFFFFF;" d="M146.902,148.592v-3.648h1.326c0.298,0,0.559,0.047,0.784,0.144
					c0.224,0.096,0.412,0.226,0.563,0.391c0.151,0.164,0.264,0.356,0.339,0.577c0.075,0.222,0.113,0.457,0.113,0.707
					c0,0.277-0.042,0.529-0.126,0.753c-0.084,0.225-0.205,0.417-0.362,0.575c-0.157,0.16-0.347,0.283-0.567,0.371
					c-0.221,0.087-0.469,0.131-0.743,0.131H146.902z M149.312,146.762c0-0.174-0.024-0.336-0.072-0.482
					c-0.048-0.147-0.118-0.274-0.21-0.381c-0.093-0.106-0.207-0.188-0.342-0.246c-0.135-0.059-0.289-0.088-0.46-0.088h-0.617v2.405
					h0.617c0.175,0,0.33-0.031,0.465-0.093c0.135-0.062,0.249-0.147,0.339-0.254c0.091-0.108,0.16-0.236,0.208-0.383
					C149.288,147.093,149.312,146.934,149.312,146.762z"/>
			</g>
		</g>
	</g>
</g>
</svg>
